<svg width="48" height="49" viewBox="0 0 48 49" fill="none" xmlns="http://www.w3.org/2000/svg">
<g filter="url(#filter0_di_909_1903)">
<mask id="path-1-inside-1_909_1903" fill="white">
<path d="M2 11C2 5.47715 6.47715 1 12 1H36C41.5228 1 46 5.47715 46 11V36C46 41.5228 41.5228 46 36 46H12C6.47715 46 2 41.5228 2 36V11Z"/>
</mask>
<path d="M2 11C2 5.47715 6.47715 1 12 1H36C41.5228 1 46 5.47715 46 11V36C46 41.5228 41.5228 46 36 46H12C6.47715 46 2 41.5228 2 36V11Z" fill="url(#paint0_linear_909_1903)"/>
<path d="M0.8 11C0.8 4.92487 5.72487 0 11.8 0H36.2C42.2751 0 47.2 4.92487 47.2 11H44.8C44.8 6.02944 40.8601 2 36 2H12C7.13989 2 3.2 6.02944 3.2 11H0.8ZM47.2 36.2C47.2 42.3856 42.1856 47.4 36 47.4H12C5.81441 47.4 0.8 42.3856 0.8 36.2L3.2 36C3.2 40.7496 7.13989 44.6 12 44.6H36C40.8601 44.6 44.8 40.7496 44.8 36L47.2 36.2ZM12 47.4C5.81441 47.4 0.8 42.3856 0.8 36.2V11C0.8 4.92487 5.72487 0 11.8 0L12 2C7.13989 2 3.2 6.02944 3.2 11V36C3.2 40.7496 7.13989 44.6 12 44.6V47.4ZM36.2 0C42.2751 0 47.2 4.92487 47.2 11V36.2C47.2 42.3856 42.1856 47.4 36 47.4V44.6C40.8601 44.6 44.8 40.7496 44.8 36V11C44.8 6.02944 40.8601 2 36 2L36.2 0Z" fill="black" mask="url(#path-1-inside-1_909_1903)"/>
<path d="M8 12C8 9.23858 10.2386 7 13 7H35C37.7614 7 40 9.23858 40 12V20C40 23.866 36.866 27 33 27H15C11.134 27 8 23.866 8 20V12Z" fill="url(#paint1_linear_909_1903)" fill-opacity="0.53"/>
<rect x="3.75" y="4.75" width="40.5" height="39.5" rx="8.25" stroke="url(#paint2_linear_909_1903)" stroke-opacity="0.8" stroke-width="1.5"/>
<g filter="url(#filter1_d_909_1903)">
<mask id="path-6-outside-2_909_1903" maskUnits="userSpaceOnUse" x="18" y="11" width="11" height="21" fill="black">
<rect fill="white" x="18" y="11" width="11" height="21"/>
<path d="M27.4967 12.48C27.4967 13.92 27.4834 15.3933 27.4567 16.9C27.4301 18.4067 27.3901 19.9267 27.3367 21.46C27.2967 22.98 27.2434 24.5067 27.1767 26.04C27.1234 27.56 27.0634 29.0533 26.9967 30.52C26.8901 30.5867 26.7101 30.6467 26.4567 30.7C26.2034 30.74 25.9101 30.78 25.5767 30.82C25.2567 30.86 24.9101 30.8933 24.5367 30.92C24.1767 30.9333 23.8234 30.9467 23.4767 30.96C23.1434 30.96 22.8367 30.96 22.5567 30.96C22.2901 30.96 22.0834 30.9533 21.9367 30.94C21.8701 29.9 21.8167 28.7867 21.7767 27.6C21.7367 26.4 21.7034 25.1867 21.6767 23.96C21.6634 22.72 21.6567 21.4933 21.6567 20.28C21.6567 19.0533 21.6634 17.88 21.6767 16.76C21.5967 16.76 21.4701 16.7533 21.2967 16.74C21.1367 16.7267 20.9634 16.7133 20.7767 16.7C20.6034 16.6867 20.4301 16.6667 20.2567 16.64C20.0967 16.6133 19.9767 16.5867 19.8967 16.56C19.9101 16.0133 19.9701 15.44 20.0767 14.84C20.1967 14.24 20.3301 13.7267 20.4767 13.3C20.9167 13.2067 21.4434 13.1133 22.0567 13.02C22.6834 12.9133 23.3234 12.82 23.9767 12.74C24.6434 12.66 25.2901 12.6 25.9167 12.56C26.5434 12.5067 27.0701 12.48 27.4967 12.48Z"/>
</mask>
<path d="M27.4967 12.48C27.4967 13.92 27.4834 15.3933 27.4567 16.9C27.4301 18.4067 27.3901 19.9267 27.3367 21.46C27.2967 22.98 27.2434 24.5067 27.1767 26.04C27.1234 27.56 27.0634 29.0533 26.9967 30.52C26.8901 30.5867 26.7101 30.6467 26.4567 30.7C26.2034 30.74 25.9101 30.78 25.5767 30.82C25.2567 30.86 24.9101 30.8933 24.5367 30.92C24.1767 30.9333 23.8234 30.9467 23.4767 30.96C23.1434 30.96 22.8367 30.96 22.5567 30.96C22.2901 30.96 22.0834 30.9533 21.9367 30.94C21.8701 29.9 21.8167 28.7867 21.7767 27.6C21.7367 26.4 21.7034 25.1867 21.6767 23.96C21.6634 22.72 21.6567 21.4933 21.6567 20.28C21.6567 19.0533 21.6634 17.88 21.6767 16.76C21.5967 16.76 21.4701 16.7533 21.2967 16.74C21.1367 16.7267 20.9634 16.7133 20.7767 16.7C20.6034 16.6867 20.4301 16.6667 20.2567 16.64C20.0967 16.6133 19.9767 16.5867 19.8967 16.56C19.9101 16.0133 19.9701 15.44 20.0767 14.84C20.1967 14.24 20.3301 13.7267 20.4767 13.3C20.9167 13.2067 21.4434 13.1133 22.0567 13.02C22.6834 12.9133 23.3234 12.82 23.9767 12.74C24.6434 12.66 25.2901 12.6 25.9167 12.56C26.5434 12.5067 27.0701 12.48 27.4967 12.48Z" fill="white"/>
<path d="M27.4967 12.48H28.4967V11.48H27.4967V12.48ZM27.4567 16.9L26.4569 16.8823V16.8823L27.4567 16.9ZM27.3367 21.46L26.3373 21.4252L26.3371 21.4337L27.3367 21.46ZM27.1767 26.04L26.1776 25.9966L26.1773 26.0049L27.1767 26.04ZM26.9967 30.52L27.5267 31.368L27.9719 31.0898L27.9957 30.5654L26.9967 30.52ZM26.4567 30.7L26.6127 31.6878L26.6378 31.6838L26.6627 31.6785L26.4567 30.7ZM25.5767 30.82L25.4576 29.8271L25.4527 29.8277L25.5767 30.82ZM24.5367 30.92L24.5737 31.9193L24.5909 31.9187L24.608 31.9175L24.5367 30.92ZM23.4767 30.96V31.96H23.4959L23.5152 31.9593L23.4767 30.96ZM21.9367 30.94L20.9388 31.004L20.9935 31.8584L21.8462 31.9359L21.9367 30.94ZM21.7767 27.6L20.7773 27.6333L20.7773 27.6337L21.7767 27.6ZM21.6767 23.96L20.6767 23.9708L20.677 23.9817L21.6767 23.96ZM21.6767 16.76L22.6766 16.7719L22.6887 15.76H21.6767V16.76ZM21.2967 16.74L21.2137 17.7366L21.22 17.7371L21.2967 16.74ZM20.7767 16.7L20.7 17.6971L20.7055 17.6975L20.7767 16.7ZM20.2567 16.64L20.0923 17.6265L20.1047 17.6284L20.2567 16.64ZM19.8967 16.56L18.897 16.5356L18.879 17.2748L19.5805 17.5087L19.8967 16.56ZM20.0767 14.84L19.0961 14.6439L19.094 14.6544L19.0922 14.665L20.0767 14.84ZM20.4767 13.3L20.2692 12.3218L19.7152 12.4393L19.531 12.9749L20.4767 13.3ZM22.0567 13.02L22.2072 14.0086L22.2159 14.0073L22.2245 14.0058L22.0567 13.02ZM23.9767 12.74L23.8576 11.7471L23.8552 11.7474L23.9767 12.74ZM25.9167 12.56L25.9804 13.558L25.991 13.5573L26.0015 13.5564L25.9167 12.56ZM26.4967 12.48C26.4967 13.9138 26.4834 15.3813 26.4569 16.8823L28.4566 16.9177C28.4833 15.4054 28.4967 13.9262 28.4967 12.48H26.4967ZM26.4569 16.8823C26.4303 18.3832 26.3905 19.8975 26.3373 21.4252L28.3361 21.4948C28.3896 19.9558 28.4298 18.4302 28.4566 16.9177L26.4569 16.8823ZM26.3371 21.4337C26.2972 22.9479 26.2441 24.4689 26.1777 25.9966L28.1758 26.0834C28.2427 24.5444 28.2962 23.0121 28.3364 21.4863L26.3371 21.4337ZM26.1773 26.0049C26.1241 27.5216 26.0643 29.0115 25.9978 30.4746L27.9957 30.5654C28.0625 29.0952 28.1227 27.5984 28.1761 26.0751L26.1773 26.0049ZM26.4667 29.672C26.4887 29.6582 26.5012 29.653 26.4988 29.6541C26.497 29.6549 26.4866 29.6593 26.4655 29.6663C26.4219 29.6808 26.3525 29.7 26.2507 29.7215L26.6627 31.6785C26.9357 31.6211 27.2624 31.5332 27.5267 31.368L26.4667 29.672ZM26.3008 29.7122C26.0627 29.7498 25.7821 29.7882 25.4576 29.8271L25.6959 31.8129C26.038 31.7718 26.3441 31.7302 26.6127 31.6878L26.3008 29.7122ZM25.4527 29.8277C25.1527 29.8652 24.8239 29.8969 24.4655 29.9225L24.608 31.9175C24.9962 31.8897 25.3607 31.8548 25.7008 31.8123L25.4527 29.8277ZM24.4997 29.9207C24.1393 29.934 23.7854 29.9474 23.4383 29.9607L23.5152 31.9593C23.8613 31.9459 24.2142 31.9326 24.5737 31.9193L24.4997 29.9207ZM23.4767 29.96C23.4761 29.96 23.4754 29.96 23.4748 29.96C23.4741 29.96 23.4735 29.96 23.4728 29.96C23.4722 29.96 23.4715 29.96 23.4709 29.96C23.4702 29.96 23.4696 29.96 23.4689 29.96C23.4683 29.96 23.4676 29.96 23.467 29.96C23.4663 29.96 23.4657 29.96 23.465 29.96C23.4644 29.96 23.4637 29.96 23.4631 29.96C23.4624 29.96 23.4618 29.96 23.4611 29.96C23.4605 29.96 23.4598 29.96 23.4592 29.96C23.4585 29.96 23.4579 29.96 23.4572 29.96C23.4566 29.96 23.4559 29.96 23.4553 29.96C23.4546 29.96 23.454 29.96 23.4533 29.96C23.4527 29.96 23.452 29.96 23.4514 29.96C23.4507 29.96 23.4501 29.96 23.4494 29.96C23.4488 29.96 23.4481 29.96 23.4475 29.96C23.4468 29.96 23.4462 29.96 23.4455 29.96C23.4449 29.96 23.4443 29.96 23.4436 29.96C23.443 29.96 23.4423 29.96 23.4417 29.96C23.441 29.96 23.4404 29.96 23.4397 29.96C23.4391 29.96 23.4384 29.96 23.4378 29.96C23.4371 29.96 23.4365 29.96 23.4358 29.96C23.4352 29.96 23.4345 29.96 23.4339 29.96C23.4333 29.96 23.4326 29.96 23.432 29.96C23.4313 29.96 23.4307 29.96 23.43 29.96C23.4294 29.96 23.4287 29.96 23.4281 29.96C23.4274 29.96 23.4268 29.96 23.4261 29.96C23.4255 29.96 23.4249 29.96 23.4242 29.96C23.4236 29.96 23.4229 29.96 23.4223 29.96C23.4216 29.96 23.421 29.96 23.4203 29.96C23.4197 29.96 23.419 29.96 23.4184 29.96C23.4178 29.96 23.4171 29.96 23.4165 29.96C23.4158 29.96 23.4152 29.96 23.4145 29.96C23.4139 29.96 23.4132 29.96 23.4126 29.96C23.412 29.96 23.4113 29.96 23.4107 29.96C23.41 29.96 23.4094 29.96 23.4087 29.96C23.4081 29.96 23.4074 29.96 23.4068 29.96C23.4062 29.96 23.4055 29.96 23.4049 29.96C23.4042 29.96 23.4036 29.96 23.4029 29.96C23.4023 29.96 23.4017 29.96 23.401 29.96C23.4004 29.96 23.3997 29.96 23.3991 29.96C23.3984 29.96 23.3978 29.96 23.3972 29.96C23.3965 29.96 23.3959 29.96 23.3952 29.96C23.3946 29.96 23.3939 29.96 23.3933 29.96C23.3927 29.96 23.392 29.96 23.3914 29.96C23.3907 29.96 23.3901 29.96 23.3894 29.96C23.3888 29.96 23.3882 29.96 23.3875 29.96C23.3869 29.96 23.3862 29.96 23.3856 29.96C23.385 29.96 23.3843 29.96 23.3837 29.96C23.383 29.96 23.3824 29.96 23.3817 29.96C23.3811 29.96 23.3805 29.96 23.3798 29.96C23.3792 29.96 23.3785 29.96 23.3779 29.96C23.3773 29.96 23.3766 29.96 23.376 29.96C23.3753 29.96 23.3747 29.96 23.3741 29.96C23.3734 29.96 23.3728 29.96 23.3721 29.96C23.3715 29.96 23.3709 29.96 23.3702 29.96C23.3696 29.96 23.3689 29.96 23.3683 29.96C23.3677 29.96 23.367 29.96 23.3664 29.96C23.3657 29.96 23.3651 29.96 23.3645 29.96C23.3638 29.96 23.3632 29.96 23.3625 29.96C23.3619 29.96 23.3613 29.96 23.3606 29.96C23.36 29.96 23.3594 29.96 23.3587 29.96C23.3581 29.96 23.3574 29.96 23.3568 29.96C23.3562 29.96 23.3555 29.96 23.3549 29.96C23.3542 29.96 23.3536 29.96 23.353 29.96C23.3523 29.96 23.3517 29.96 23.3511 29.96C23.3504 29.96 23.3498 29.96 23.3491 29.96C23.3485 29.96 23.3479 29.96 23.3472 29.96C23.3466 29.96 23.346 29.96 23.3453 29.96C23.3447 29.96 23.344 29.96 23.3434 29.96C23.3428 29.96 23.3421 29.96 23.3415 29.96C23.3409 29.96 23.3402 29.96 23.3396 29.96C23.3389 29.96 23.3383 29.96 23.3377 29.96C23.337 29.96 23.3364 29.96 23.3358 29.96C23.3351 29.96 23.3345 29.96 23.3339 29.96C23.3332 29.96 23.3326 29.96 23.332 29.96C23.3313 29.96 23.3307 29.96 23.33 29.96C23.3294 29.96 23.3288 29.96 23.3281 29.96C23.3275 29.96 23.3269 29.96 23.3262 29.96C23.3256 29.96 23.325 29.96 23.3243 29.96C23.3237 29.96 23.3231 29.96 23.3224 29.96C23.3218 29.96 23.3212 29.96 23.3205 29.96C23.3199 29.96 23.3192 29.96 23.3186 29.96C23.318 29.96 23.3173 29.96 23.3167 29.96C23.3161 29.96 23.3154 29.96 23.3148 29.96C23.3142 29.96 23.3135 29.96 23.3129 29.96C23.3123 29.96 23.3116 29.96 23.311 29.96C23.3104 29.96 23.3097 29.96 23.3091 29.96C23.3085 29.96 23.3078 29.96 23.3072 29.96C23.3066 29.96 23.3059 29.96 23.3053 29.96C23.3047 29.96 23.304 29.96 23.3034 29.96C23.3028 29.96 23.3021 29.96 23.3015 29.96C23.3009 29.96 23.3002 29.96 23.2996 29.96C23.299 29.96 23.2983 29.96 23.2977 29.96C23.2971 29.96 23.2965 29.96 23.2958 29.96C23.2952 29.96 23.2946 29.96 23.2939 29.96C23.2933 29.96 23.2927 29.96 23.292 29.96C23.2914 29.96 23.2908 29.96 23.2901 29.96C23.2895 29.96 23.2889 29.96 23.2882 29.96C23.2876 29.96 23.287 29.96 23.2864 29.96C23.2857 29.96 23.2851 29.96 23.2845 29.96C23.2838 29.96 23.2832 29.96 23.2826 29.96C23.2819 29.96 23.2813 29.96 23.2807 29.96C23.28 29.96 23.2794 29.96 23.2788 29.96C23.2782 29.96 23.2775 29.96 23.2769 29.96C23.2763 29.96 23.2756 29.96 23.275 29.96C23.2744 29.96 23.2737 29.96 23.2731 29.96C23.2725 29.96 23.2719 29.96 23.2712 29.96C23.2706 29.96 23.27 29.96 23.2693 29.96C23.2687 29.96 23.2681 29.96 23.2675 29.96C23.2668 29.96 23.2662 29.96 23.2656 29.96C23.2649 29.96 23.2643 29.96 23.2637 29.96C23.2631 29.96 23.2624 29.96 23.2618 29.96C23.2612 29.96 23.2605 29.96 23.2599 29.96C23.2593 29.96 23.2587 29.96 23.258 29.96C23.2574 29.96 23.2568 29.96 23.2561 29.96C23.2555 29.96 23.2549 29.96 23.2543 29.96C23.2536 29.96 23.253 29.96 23.2524 29.96C23.2518 29.96 23.2511 29.96 23.2505 29.96C23.2499 29.96 23.2492 29.96 23.2486 29.96C23.248 29.96 23.2474 29.96 23.2467 29.96C23.2461 29.96 23.2455 29.96 23.2449 29.96C23.2442 29.96 23.2436 29.96 23.243 29.96C23.2424 29.96 23.2417 29.96 23.2411 29.96C23.2405 29.96 23.2398 29.96 23.2392 29.96C23.2386 29.96 23.238 29.96 23.2373 29.96C23.2367 29.96 23.2361 29.96 23.2355 29.96C23.2348 29.96 23.2342 29.96 23.2336 29.96C23.233 29.96 23.2323 29.96 23.2317 29.96C23.2311 29.96 23.2305 29.96 23.2298 29.96C23.2292 29.96 23.2286 29.96 23.228 29.96C23.2273 29.96 23.2267 29.96 23.2261 29.96C23.2255 29.96 23.2248 29.96 23.2242 29.96C23.2236 29.96 23.223 29.96 23.2224 29.96C23.2217 29.96 23.2211 29.96 23.2205 29.96C23.2199 29.96 23.2192 29.96 23.2186 29.96C23.218 29.96 23.2174 29.96 23.2167 29.96C23.2161 29.96 23.2155 29.96 23.2149 29.96C23.2142 29.96 23.2136 29.96 23.213 29.96C23.2124 29.96 23.2118 29.96 23.2111 29.96C23.2105 29.96 23.2099 29.96 23.2093 29.96C23.2086 29.96 23.208 29.96 23.2074 29.96C23.2068 29.96 23.2062 29.96 23.2055 29.96C23.2049 29.96 23.2043 29.96 23.2037 29.96C23.203 29.96 23.2024 29.96 23.2018 29.96C23.2012 29.96 23.2006 29.96 23.1999 29.96C23.1993 29.96 23.1987 29.96 23.1981 29.96C23.1974 29.96 23.1968 29.96 23.1962 29.96C23.1956 29.96 23.195 29.96 23.1943 29.96C23.1937 29.96 23.1931 29.96 23.1925 29.96C23.1919 29.96 23.1912 29.96 23.1906 29.96C23.19 29.96 23.1894 29.96 23.1888 29.96C23.1881 29.96 23.1875 29.96 23.1869 29.96C23.1863 29.96 23.1857 29.96 23.185 29.96C23.1844 29.96 23.1838 29.96 23.1832 29.96C23.1826 29.96 23.1819 29.96 23.1813 29.96C23.1807 29.96 23.1801 29.96 23.1795 29.96C23.1788 29.96 23.1782 29.96 23.1776 29.96C23.177 29.96 23.1764 29.96 23.1757 29.96C23.1751 29.96 23.1745 29.96 23.1739 29.96C23.1733 29.96 23.1726 29.96 23.172 29.96C23.1714 29.96 23.1708 29.96 23.1702 29.96C23.1696 29.96 23.1689 29.96 23.1683 29.96C23.1677 29.96 23.1671 29.96 23.1665 29.96C23.1658 29.96 23.1652 29.96 23.1646 29.96C23.164 29.96 23.1634 29.96 23.1628 29.96C23.1621 29.96 23.1615 29.96 23.1609 29.96C23.1603 29.96 23.1597 29.96 23.1591 29.96C23.1584 29.96 23.1578 29.96 23.1572 29.96C23.1566 29.96 23.156 29.96 23.1554 29.96C23.1547 29.96 23.1541 29.96 23.1535 29.96C23.1529 29.96 23.1523 29.96 23.1517 29.96C23.151 29.96 23.1504 29.96 23.1498 29.96C23.1492 29.96 23.1486 29.96 23.148 29.96C23.1473 29.96 23.1467 29.96 23.1461 29.96C23.1455 29.96 23.1449 29.96 23.1443 29.96C23.1437 29.96 23.143 29.96 23.1424 29.96C23.1418 29.96 23.1412 29.96 23.1406 29.96C23.14 29.96 23.1393 29.96 23.1387 29.96C23.1381 29.96 23.1375 29.96 23.1369 29.96C23.1363 29.96 23.1357 29.96 23.135 29.96C23.1344 29.96 23.1338 29.96 23.1332 29.96C23.1326 29.96 23.132 29.96 23.1314 29.96C23.1307 29.96 23.1301 29.96 23.1295 29.96C23.1289 29.96 23.1283 29.96 23.1277 29.96C23.1271 29.96 23.1264 29.96 23.1258 29.96C23.1252 29.96 23.1246 29.96 23.124 29.96C23.1234 29.96 23.1228 29.96 23.1222 29.96C23.1215 29.96 23.1209 29.96 23.1203 29.96C23.1197 29.96 23.1191 29.96 23.1185 29.96C23.1179 29.96 23.1173 29.96 23.1166 29.96C23.116 29.96 23.1154 29.96 23.1148 29.96C23.1142 29.96 23.1136 29.96 23.113 29.96C23.1124 29.96 23.1117 29.96 23.1111 29.96C23.1105 29.96 23.1099 29.96 23.1093 29.96C23.1087 29.96 23.1081 29.96 23.1075 29.96C23.1069 29.96 23.1062 29.96 23.1056 29.96C23.105 29.96 23.1044 29.96 23.1038 29.96C23.1032 29.96 23.1026 29.96 23.102 29.96C23.1014 29.96 23.1007 29.96 23.1001 29.96C23.0995 29.96 23.0989 29.96 23.0983 29.96C23.0977 29.96 23.0971 29.96 23.0965 29.96C23.0959 29.96 23.0953 29.96 23.0946 29.96C23.094 29.96 23.0934 29.96 23.0928 29.96C23.0922 29.96 23.0916 29.96 23.091 29.96C23.0904 29.96 23.0898 29.96 23.0892 29.96C23.0885 29.96 23.0879 29.96 23.0873 29.96C23.0867 29.96 23.0861 29.96 23.0855 29.96C23.0849 29.96 23.0843 29.96 23.0837 29.96C23.0831 29.96 23.0825 29.96 23.0818 29.96C23.0812 29.96 23.0806 29.96 23.08 29.96C23.0794 29.96 23.0788 29.96 23.0782 29.96C23.0776 29.96 23.077 29.96 23.0764 29.96C23.0758 29.96 23.0752 29.96 23.0745 29.96C23.0739 29.96 23.0733 29.96 23.0727 29.96C23.0721 29.96 23.0715 29.96 23.0709 29.96C23.0703 29.96 23.0697 29.96 23.0691 29.96C23.0685 29.96 23.0679 29.96 23.0673 29.96C23.0667 29.96 23.066 29.96 23.0654 29.96C23.0648 29.96 23.0642 29.96 23.0636 29.96C23.063 29.96 23.0624 29.96 23.0618 29.96C23.0612 29.96 23.0606 29.96 23.06 29.96C23.0594 29.96 23.0588 29.96 23.0582 29.96C23.0576 29.96 23.057 29.96 23.0563 29.96C23.0557 29.96 23.0551 29.96 23.0545 29.96C23.0539 29.96 23.0533 29.96 23.0527 29.96C23.0521 29.96 23.0515 29.96 23.0509 29.96C23.0503 29.96 23.0497 29.96 23.0491 29.96C23.0485 29.96 23.0479 29.96 23.0473 29.96C23.0467 29.96 23.0461 29.96 23.0455 29.96C23.0449 29.96 23.0442 29.96 23.0436 29.96C23.043 29.96 23.0424 29.96 23.0418 29.96C23.0412 29.96 23.0406 29.96 23.04 29.96C23.0394 29.96 23.0388 29.96 23.0382 29.96C23.0376 29.96 23.037 29.96 23.0364 29.96C23.0358 29.96 23.0352 29.96 23.0346 29.96C23.034 29.96 23.0334 29.96 23.0328 29.96C23.0322 29.96 23.0316 29.96 23.031 29.96C23.0304 29.96 23.0298 29.96 23.0292 29.96C23.0286 29.96 23.028 29.96 23.0274 29.96C23.0268 29.96 23.0261 29.96 23.0255 29.96C23.0249 29.96 23.0243 29.96 23.0237 29.96C23.0231 29.96 23.0225 29.96 23.0219 29.96C23.0213 29.96 23.0207 29.96 23.0201 29.96C23.0195 29.96 23.0189 29.96 23.0183 29.96C23.0177 29.96 23.0171 29.96 23.0165 29.96C23.0159 29.96 23.0153 29.96 23.0147 29.96C23.0141 29.96 23.0135 29.96 23.0129 29.96C23.0123 29.96 23.0117 29.96 23.0111 29.96C23.0105 29.96 23.0099 29.96 23.0093 29.96C23.0087 29.96 23.0081 29.96 23.0075 29.96C23.0069 29.96 23.0063 29.96 23.0057 29.96C23.0051 29.96 23.0045 29.96 23.0039 29.96C23.0033 29.96 23.0027 29.96 23.0021 29.96C23.0015 29.96 23.0009 29.96 23.0003 29.96C22.9997 29.96 22.9991 29.96 22.9985 29.96C22.9979 29.96 22.9973 29.96 22.9967 29.96C22.9961 29.96 22.9955 29.96 22.9949 29.96C22.9943 29.96 22.9937 29.96 22.9931 29.96C22.9925 29.96 22.9919 29.96 22.9913 29.96C22.9907 29.96 22.9901 29.96 22.9895 29.96C22.9889 29.96 22.9883 29.96 22.9877 29.96C22.9871 29.96 22.9865 29.96 22.9859 29.96C22.9854 29.96 22.9848 29.96 22.9842 29.96C22.9836 29.96 22.983 29.96 22.9824 29.96C22.9818 29.96 22.9812 29.96 22.9806 29.96C22.98 29.96 22.9794 29.96 22.9788 29.96C22.9782 29.96 22.9776 29.96 22.977 29.96C22.9764 29.96 22.9758 29.96 22.9752 29.96C22.9746 29.96 22.974 29.96 22.9734 29.96C22.9728 29.96 22.9722 29.96 22.9716 29.96C22.971 29.96 22.9704 29.96 22.9698 29.96C22.9692 29.96 22.9686 29.96 22.968 29.96C22.9675 29.96 22.9669 29.96 22.9663 29.96C22.9657 29.96 22.9651 29.96 22.9645 29.96C22.9639 29.96 22.9633 29.96 22.9627 29.96C22.9621 29.96 22.9615 29.96 22.9609 29.96C22.9603 29.96 22.9597 29.96 22.9591 29.96C22.9585 29.96 22.9579 29.96 22.9573 29.96C22.9567 29.96 22.9561 29.96 22.9556 29.96C22.955 29.96 22.9544 29.96 22.9538 29.96C22.9532 29.96 22.9526 29.96 22.952 29.96C22.9514 29.96 22.9508 29.96 22.9502 29.96C22.9496 29.96 22.949 29.96 22.9484 29.96C22.9478 29.96 22.9472 29.96 22.9466 29.96C22.9461 29.96 22.9455 29.96 22.9449 29.96C22.9443 29.96 22.9437 29.96 22.9431 29.96C22.9425 29.96 22.9419 29.96 22.9413 29.96C22.9407 29.96 22.9401 29.96 22.9395 29.96C22.9389 29.96 22.9383 29.96 22.9378 29.96C22.9372 29.96 22.9366 29.96 22.936 29.96C22.9354 29.96 22.9348 29.96 22.9342 29.96C22.9336 29.96 22.933 29.96 22.9324 29.96C22.9318 29.96 22.9312 29.96 22.9307 29.96C22.9301 29.96 22.9295 29.96 22.9289 29.96C22.9283 29.96 22.9277 29.96 22.9271 29.96C22.9265 29.96 22.9259 29.96 22.9253 29.96C22.9247 29.96 22.9242 29.96 22.9236 29.96C22.923 29.96 22.9224 29.96 22.9218 29.96C22.9212 29.96 22.9206 29.96 22.92 29.96C22.9194 29.96 22.9188 29.96 22.9182 29.96C22.9177 29.96 22.9171 29.96 22.9165 29.96C22.9159 29.96 22.9153 29.96 22.9147 29.96C22.9141 29.96 22.9135 29.96 22.9129 29.96C22.9124 29.96 22.9118 29.96 22.9112 29.96C22.9106 29.96 22.91 29.96 22.9094 29.96C22.9088 29.96 22.9082 29.96 22.9076 29.96C22.907 29.96 22.9065 29.96 22.9059 29.96C22.9053 29.96 22.9047 29.96 22.9041 29.96C22.9035 29.96 22.9029 29.96 22.9023 29.96C22.9018 29.96 22.9012 29.96 22.9006 29.96C22.9 29.96 22.8994 29.96 22.8988 29.96C22.8982 29.96 22.8976 29.96 22.8971 29.96C22.8965 29.96 22.8959 29.96 22.8953 29.96C22.8947 29.96 22.8941 29.96 22.8935 29.96C22.8929 29.96 22.8924 29.96 22.8918 29.96C22.8912 29.96 22.8906 29.96 22.89 29.96C22.8894 29.96 22.8888 29.96 22.8882 29.96C22.8877 29.96 22.8871 29.96 22.8865 29.96C22.8859 29.96 22.8853 29.96 22.8847 29.96C22.8841 29.96 22.8836 29.96 22.883 29.96C22.8824 29.96 22.8818 29.96 22.8812 29.96C22.8806 29.96 22.88 29.96 22.8795 29.96C22.8789 29.96 22.8783 29.96 22.8777 29.96C22.8771 29.96 22.8765 29.96 22.8759 29.96C22.8754 29.96 22.8748 29.96 22.8742 29.96C22.8736 29.96 22.873 29.96 22.8724 29.96C22.8718 29.96 22.8713 29.96 22.8707 29.96C22.8701 29.96 22.8695 29.96 22.8689 29.96C22.8683 29.96 22.8678 29.96 22.8672 29.96C22.8666 29.96 22.866 29.96 22.8654 29.96C22.8648 29.96 22.8643 29.96 22.8637 29.96C22.8631 29.96 22.8625 29.96 22.8619 29.96C22.8613 29.96 22.8608 29.96 22.8602 29.96C22.8596 29.96 22.859 29.96 22.8584 29.96C22.8578 29.96 22.8573 29.96 22.8567 29.96C22.8561 29.96 22.8555 29.96 22.8549 29.96C22.8543 29.96 22.8538 29.96 22.8532 29.96C22.8526 29.96 22.852 29.96 22.8514 29.96C22.8508 29.96 22.8503 29.96 22.8497 29.96C22.8491 29.96 22.8485 29.96 22.8479 29.96C22.8474 29.96 22.8468 29.96 22.8462 29.96C22.8456 29.96 22.845 29.96 22.8444 29.96C22.8439 29.96 22.8433 29.96 22.8427 29.96C22.8421 29.96 22.8415 29.96 22.841 29.96C22.8404 29.96 22.8398 29.96 22.8392 29.96C22.8386 29.96 22.8381 29.96 22.8375 29.96C22.8369 29.96 22.8363 29.96 22.8357 29.96C22.8352 29.96 22.8346 29.96 22.834 29.96C22.8334 29.96 22.8328 29.96 22.8322 29.96C22.8317 29.96 22.8311 29.96 22.8305 29.96C22.8299 29.96 22.8293 29.96 22.8288 29.96C22.8282 29.96 22.8276 29.96 22.827 29.96C22.8265 29.96 22.8259 29.96 22.8253 29.96C22.8247 29.96 22.8241 29.96 22.8236 29.96C22.823 29.96 22.8224 29.96 22.8218 29.96C22.8212 29.96 22.8207 29.96 22.8201 29.96C22.8195 29.96 22.8189 29.96 22.8183 29.96C22.8178 29.96 22.8172 29.96 22.8166 29.96C22.816 29.96 22.8155 29.96 22.8149 29.96C22.8143 29.96 22.8137 29.96 22.8131 29.96C22.8126 29.96 22.812 29.96 22.8114 29.96C22.8108 29.96 22.8103 29.96 22.8097 29.96C22.8091 29.96 22.8085 29.96 22.8079 29.96C22.8074 29.96 22.8068 29.96 22.8062 29.96C22.8056 29.96 22.8051 29.96 22.8045 29.96C22.8039 29.96 22.8033 29.96 22.8028 29.96C22.8022 29.96 22.8016 29.96 22.801 29.96C22.8004 29.96 22.7999 29.96 22.7993 29.96C22.7987 29.96 22.7981 29.96 22.7976 29.96C22.797 29.96 22.7964 29.96 22.7958 29.96C22.7953 29.96 22.7947 29.96 22.7941 29.96C22.7935 29.96 22.793 29.96 22.7924 29.96C22.7918 29.96 22.7912 29.96 22.7907 29.96C22.7901 29.96 22.7895 29.96 22.7889 29.96C22.7884 29.96 22.7878 29.96 22.7872 29.96C22.7866 29.96 22.7861 29.96 22.7855 29.96C22.7849 29.96 22.7843 29.96 22.7838 29.96C22.7832 29.96 22.7826 29.96 22.782 29.96C22.7815 29.96 22.7809 29.96 22.7803 29.96C22.7797 29.96 22.7792 29.96 22.7786 29.96C22.778 29.96 22.7775 29.96 22.7769 29.96C22.7763 29.96 22.7757 29.96 22.7752 29.96C22.7746 29.96 22.774 29.96 22.7734 29.96C22.7729 29.96 22.7723 29.96 22.7717 29.96C22.7711 29.96 22.7706 29.96 22.77 29.96C22.7694 29.96 22.7689 29.96 22.7683 29.96C22.7677 29.96 22.7671 29.96 22.7666 29.96C22.766 29.96 22.7654 29.96 22.7648 29.96C22.7643 29.96 22.7637 29.96 22.7631 29.96C22.7626 29.96 22.762 29.96 22.7614 29.96C22.7608 29.96 22.7603 29.96 22.7597 29.96C22.7591 29.96 22.7586 29.96 22.758 29.96C22.7574 29.96 22.7568 29.96 22.7563 29.96C22.7557 29.96 22.7551 29.96 22.7546 29.96C22.754 29.96 22.7534 29.96 22.7528 29.96C22.7523 29.96 22.7517 29.96 22.7511 29.96C22.7506 29.96 22.75 29.96 22.7494 29.96C22.7489 29.96 22.7483 29.96 22.7477 29.96C22.7471 29.96 22.7466 29.96 22.746 29.96C22.7454 29.96 22.7449 29.96 22.7443 29.96C22.7437 29.96 22.7432 29.96 22.7426 29.96C22.742 29.96 22.7414 29.96 22.7409 29.96C22.7403 29.96 22.7397 29.96 22.7392 29.96C22.7386 29.96 22.738 29.96 22.7375 29.96C22.7369 29.96 22.7363 29.96 22.7358 29.96C22.7352 29.96 22.7346 29.96 22.7341 29.96C22.7335 29.96 22.7329 29.96 22.7323 29.96C22.7318 29.96 22.7312 29.96 22.7306 29.96C22.7301 29.96 22.7295 29.96 22.7289 29.96C22.7284 29.96 22.7278 29.96 22.7272 29.96C22.7267 29.96 22.7261 29.96 22.7255 29.96C22.725 29.96 22.7244 29.96 22.7238 29.96C22.7233 29.96 22.7227 29.96 22.7221 29.96C22.7216 29.96 22.721 29.96 22.7204 29.96C22.7199 29.96 22.7193 29.96 22.7187 29.96C22.7182 29.96 22.7176 29.96 22.717 29.96C22.7165 29.96 22.7159 29.96 22.7153 29.96C22.7148 29.96 22.7142 29.96 22.7136 29.96C22.7131 29.96 22.7125 29.96 22.7119 29.96C22.7114 29.96 22.7108 29.96 22.7102 29.96C22.7097 29.96 22.7091 29.96 22.7085 29.96C22.708 29.96 22.7074 29.96 22.7068 29.96C22.7063 29.96 22.7057 29.96 22.7052 29.96C22.7046 29.96 22.704 29.96 22.7035 29.96C22.7029 29.96 22.7023 29.96 22.7018 29.96C22.7012 29.96 22.7006 29.96 22.7001 29.96C22.6995 29.96 22.6989 29.96 22.6984 29.96C22.6978 29.96 22.6972 29.96 22.6967 29.96C22.6961 29.96 22.6956 29.96 22.695 29.96C22.6944 29.96 22.6939 29.96 22.6933 29.96C22.6927 29.96 22.6922 29.96 22.6916 29.96C22.691 29.96 22.6905 29.96 22.6899 29.96C22.6894 29.96 22.6888 29.96 22.6882 29.96C22.6877 29.96 22.6871 29.96 22.6865 29.96C22.686 29.96 22.6854 29.96 22.6849 29.96C22.6843 29.96 22.6837 29.96 22.6832 29.96C22.6826 29.96 22.682 29.96 22.6815 29.96C22.6809 29.96 22.6804 29.96 22.6798 29.96C22.6792 29.96 22.6787 29.96 22.6781 29.96C22.6775 29.96 22.677 29.96 22.6764 29.96C22.6759 29.96 22.6753 29.96 22.6747 29.96C22.6742 29.96 22.6736 29.96 22.6731 29.96C22.6725 29.96 22.6719 29.96 22.6714 29.96C22.6708 29.96 22.6703 29.96 22.6697 29.96C22.6691 29.96 22.6686 29.96 22.668 29.96C22.6675 29.96 22.6669 29.96 22.6663 29.96C22.6658 29.96 22.6652 29.96 22.6646 29.96C22.6641 29.96 22.6635 29.96 22.663 29.96C22.6624 29.96 22.6618 29.96 22.6613 29.96C22.6607 29.96 22.6602 29.96 22.6596 29.96C22.6591 29.96 22.6585 29.96 22.6579 29.96C22.6574 29.96 22.6568 29.96 22.6563 29.96C22.6557 29.96 22.6551 29.96 22.6546 29.96C22.654 29.96 22.6535 29.96 22.6529 29.96C22.6523 29.96 22.6518 29.96 22.6512 29.96C22.6507 29.96 22.6501 29.96 22.6496 29.96C22.649 29.96 22.6484 29.96 22.6479 29.96C22.6473 29.96 22.6468 29.96 22.6462 29.96C22.6456 29.96 22.6451 29.96 22.6445 29.96C22.644 29.96 22.6434 29.96 22.6429 29.96C22.6423 29.96 22.6417 29.96 22.6412 29.96C22.6406 29.96 22.6401 29.96 22.6395 29.96C22.639 29.96 22.6384 29.96 22.6378 29.96C22.6373 29.96 22.6367 29.96 22.6362 29.96C22.6356 29.96 22.6351 29.96 22.6345 29.96C22.6339 29.96 22.6334 29.96 22.6328 29.96C22.6323 29.96 22.6317 29.96 22.6312 29.96C22.6306 29.96 22.6301 29.96 22.6295 29.96C22.6289 29.96 22.6284 29.96 22.6278 29.96C22.6273 29.96 22.6267 29.96 22.6262 29.96C22.6256 29.96 22.6251 29.96 22.6245 29.96C22.6239 29.96 22.6234 29.96 22.6228 29.96C22.6223 29.96 22.6217 29.96 22.6212 29.96C22.6206 29.96 22.6201 29.96 22.6195 29.96C22.6189 29.96 22.6184 29.96 22.6178 29.96C22.6173 29.96 22.6167 29.96 22.6162 29.96C22.6156 29.96 22.6151 29.96 22.6145 29.96C22.614 29.96 22.6134 29.96 22.6129 29.96C22.6123 29.96 22.6117 29.96 22.6112 29.96C22.6106 29.96 22.6101 29.96 22.6095 29.96C22.609 29.96 22.6084 29.96 22.6079 29.96C22.6073 29.96 22.6068 29.96 22.6062 29.96C22.6057 29.96 22.6051 29.96 22.6046 29.96C22.604 29.96 22.6034 29.96 22.6029 29.96C22.6023 29.96 22.6018 29.96 22.6012 29.96C22.6007 29.96 22.6001 29.96 22.5996 29.96C22.599 29.96 22.5985 29.96 22.5979 29.96C22.5974 29.96 22.5968 29.96 22.5963 29.96C22.5957 29.96 22.5952 29.96 22.5946 29.96C22.5941 29.96 22.5935 29.96 22.593 29.96C22.5924 29.96 22.5919 29.96 22.5913 29.96C22.5908 29.96 22.5902 29.96 22.5897 29.96C22.5891 29.96 22.5886 29.96 22.588 29.96C22.5875 29.96 22.5869 29.96 22.5863 29.96C22.5858 29.96 22.5852 29.96 22.5847 29.96C22.5841 29.96 22.5836 29.96 22.583 29.96C22.5825 29.96 22.5819 29.96 22.5814 29.96C22.5808 29.96 22.5803 29.96 22.5797 29.96C22.5792 29.96 22.5786 29.96 22.5781 29.96C22.5775 29.96 22.577 29.96 22.5765 29.96C22.5759 29.96 22.5754 29.96 22.5748 29.96C22.5743 29.96 22.5737 29.96 22.5732 29.96C22.5726 29.96 22.5721 29.96 22.5715 29.96C22.571 29.96 22.5704 29.96 22.5699 29.96C22.5693 29.96 22.5688 29.96 22.5682 29.96C22.5677 29.96 22.5671 29.96 22.5666 29.96C22.566 29.96 22.5655 29.96 22.5649 29.96C22.5644 29.96 22.5638 29.96 22.5633 29.96C22.5627 29.96 22.5622 29.96 22.5616 29.96C22.5611 29.96 22.5605 29.96 22.56 29.96C22.5595 29.96 22.5589 29.96 22.5584 29.96C22.5578 29.96 22.5573 29.96 22.5567 29.96V31.96C22.5573 31.96 22.5578 31.96 22.5584 31.96C22.5589 31.96 22.5595 31.96 22.56 31.96C22.5605 31.96 22.5611 31.96 22.5616 31.96C22.5622 31.96 22.5627 31.96 22.5633 31.96C22.5638 31.96 22.5644 31.96 22.5649 31.96C22.5655 31.96 22.566 31.96 22.5666 31.96C22.5671 31.96 22.5677 31.96 22.5682 31.96C22.5688 31.96 22.5693 31.96 22.5699 31.96C22.5704 31.96 22.571 31.96 22.5715 31.96C22.5721 31.96 22.5726 31.96 22.5732 31.96C22.5737 31.96 22.5743 31.96 22.5748 31.96C22.5754 31.96 22.5759 31.96 22.5765 31.96C22.577 31.96 22.5775 31.96 22.5781 31.96C22.5786 31.96 22.5792 31.96 22.5797 31.96C22.5803 31.96 22.5808 31.96 22.5814 31.96C22.5819 31.96 22.5825 31.96 22.583 31.96C22.5836 31.96 22.5841 31.96 22.5847 31.96C22.5852 31.96 22.5858 31.96 22.5863 31.96C22.5869 31.96 22.5875 31.96 22.588 31.96C22.5886 31.96 22.5891 31.96 22.5897 31.96C22.5902 31.96 22.5908 31.96 22.5913 31.96C22.5919 31.96 22.5924 31.96 22.593 31.96C22.5935 31.96 22.5941 31.96 22.5946 31.96C22.5952 31.96 22.5957 31.96 22.5963 31.96C22.5968 31.96 22.5974 31.96 22.5979 31.96C22.5985 31.96 22.599 31.96 22.5996 31.96C22.6001 31.96 22.6007 31.96 22.6012 31.96C22.6018 31.96 22.6023 31.96 22.6029 31.96C22.6034 31.96 22.604 31.96 22.6046 31.96C22.6051 31.96 22.6057 31.96 22.6062 31.96C22.6068 31.96 22.6073 31.96 22.6079 31.96C22.6084 31.96 22.609 31.96 22.6095 31.96C22.6101 31.96 22.6106 31.96 22.6112 31.96C22.6117 31.96 22.6123 31.96 22.6129 31.96C22.6134 31.96 22.614 31.96 22.6145 31.96C22.6151 31.96 22.6156 31.96 22.6162 31.96C22.6167 31.96 22.6173 31.96 22.6178 31.96C22.6184 31.96 22.6189 31.96 22.6195 31.96C22.6201 31.96 22.6206 31.96 22.6212 31.96C22.6217 31.96 22.6223 31.96 22.6228 31.96C22.6234 31.96 22.6239 31.96 22.6245 31.96C22.6251 31.96 22.6256 31.96 22.6262 31.96C22.6267 31.96 22.6273 31.96 22.6278 31.96C22.6284 31.96 22.6289 31.96 22.6295 31.96C22.6301 31.96 22.6306 31.96 22.6312 31.96C22.6317 31.96 22.6323 31.96 22.6328 31.96C22.6334 31.96 22.6339 31.96 22.6345 31.96C22.6351 31.96 22.6356 31.96 22.6362 31.96C22.6367 31.96 22.6373 31.96 22.6378 31.96C22.6384 31.96 22.639 31.96 22.6395 31.96C22.6401 31.96 22.6406 31.96 22.6412 31.96C22.6417 31.96 22.6423 31.96 22.6429 31.96C22.6434 31.96 22.644 31.96 22.6445 31.96C22.6451 31.96 22.6456 31.96 22.6462 31.96C22.6468 31.96 22.6473 31.96 22.6479 31.96C22.6484 31.96 22.649 31.96 22.6496 31.96C22.6501 31.96 22.6507 31.96 22.6512 31.96C22.6518 31.96 22.6523 31.96 22.6529 31.96C22.6535 31.96 22.654 31.96 22.6546 31.96C22.6551 31.96 22.6557 31.96 22.6563 31.96C22.6568 31.96 22.6574 31.96 22.6579 31.96C22.6585 31.96 22.6591 31.96 22.6596 31.96C22.6602 31.96 22.6607 31.96 22.6613 31.96C22.6618 31.96 22.6624 31.96 22.663 31.96C22.6635 31.96 22.6641 31.96 22.6646 31.96C22.6652 31.96 22.6658 31.96 22.6663 31.96C22.6669 31.96 22.6675 31.96 22.668 31.96C22.6686 31.96 22.6691 31.96 22.6697 31.96C22.6703 31.96 22.6708 31.96 22.6714 31.96C22.6719 31.96 22.6725 31.96 22.6731 31.96C22.6736 31.96 22.6742 31.96 22.6747 31.96C22.6753 31.96 22.6759 31.96 22.6764 31.96C22.677 31.96 22.6775 31.96 22.6781 31.96C22.6787 31.96 22.6792 31.96 22.6798 31.96C22.6804 31.96 22.6809 31.96 22.6815 31.96C22.682 31.96 22.6826 31.96 22.6832 31.96C22.6837 31.96 22.6843 31.96 22.6849 31.96C22.6854 31.96 22.686 31.96 22.6865 31.96C22.6871 31.96 22.6877 31.96 22.6882 31.96C22.6888 31.96 22.6894 31.96 22.6899 31.96C22.6905 31.96 22.691 31.96 22.6916 31.96C22.6922 31.96 22.6927 31.96 22.6933 31.96C22.6939 31.96 22.6944 31.96 22.695 31.96C22.6956 31.96 22.6961 31.96 22.6967 31.96C22.6972 31.96 22.6978 31.96 22.6984 31.96C22.6989 31.96 22.6995 31.96 22.7001 31.96C22.7006 31.96 22.7012 31.96 22.7018 31.96C22.7023 31.96 22.7029 31.96 22.7035 31.96C22.704 31.96 22.7046 31.96 22.7052 31.96C22.7057 31.96 22.7063 31.96 22.7068 31.96C22.7074 31.96 22.708 31.96 22.7085 31.96C22.7091 31.96 22.7097 31.96 22.7102 31.96C22.7108 31.96 22.7114 31.96 22.7119 31.96C22.7125 31.96 22.7131 31.96 22.7136 31.96C22.7142 31.96 22.7148 31.96 22.7153 31.96C22.7159 31.96 22.7165 31.96 22.717 31.96C22.7176 31.96 22.7182 31.96 22.7187 31.96C22.7193 31.96 22.7199 31.96 22.7204 31.96C22.721 31.96 22.7216 31.96 22.7221 31.96C22.7227 31.96 22.7233 31.96 22.7238 31.96C22.7244 31.96 22.725 31.96 22.7255 31.96C22.7261 31.96 22.7267 31.96 22.7272 31.96C22.7278 31.96 22.7284 31.96 22.7289 31.96C22.7295 31.96 22.7301 31.96 22.7306 31.96C22.7312 31.96 22.7318 31.96 22.7323 31.96C22.7329 31.96 22.7335 31.96 22.7341 31.96C22.7346 31.96 22.7352 31.96 22.7358 31.96C22.7363 31.96 22.7369 31.96 22.7375 31.96C22.738 31.96 22.7386 31.96 22.7392 31.96C22.7397 31.96 22.7403 31.96 22.7409 31.96C22.7414 31.96 22.742 31.96 22.7426 31.96C22.7432 31.96 22.7437 31.96 22.7443 31.96C22.7449 31.96 22.7454 31.96 22.746 31.96C22.7466 31.96 22.7471 31.96 22.7477 31.96C22.7483 31.96 22.7489 31.96 22.7494 31.96C22.75 31.96 22.7506 31.96 22.7511 31.96C22.7517 31.96 22.7523 31.96 22.7528 31.96C22.7534 31.96 22.754 31.96 22.7546 31.96C22.7551 31.96 22.7557 31.96 22.7563 31.96C22.7568 31.96 22.7574 31.96 22.758 31.96C22.7586 31.96 22.7591 31.96 22.7597 31.96C22.7603 31.96 22.7608 31.96 22.7614 31.96C22.762 31.96 22.7626 31.96 22.7631 31.96C22.7637 31.96 22.7643 31.96 22.7648 31.96C22.7654 31.96 22.766 31.96 22.7666 31.96C22.7671 31.96 22.7677 31.96 22.7683 31.96C22.7689 31.96 22.7694 31.96 22.77 31.96C22.7706 31.96 22.7711 31.96 22.7717 31.96C22.7723 31.96 22.7729 31.96 22.7734 31.96C22.774 31.96 22.7746 31.96 22.7752 31.96C22.7757 31.96 22.7763 31.96 22.7769 31.96C22.7775 31.96 22.778 31.96 22.7786 31.96C22.7792 31.96 22.7797 31.96 22.7803 31.96C22.7809 31.96 22.7815 31.96 22.782 31.96C22.7826 31.96 22.7832 31.96 22.7838 31.96C22.7843 31.96 22.7849 31.96 22.7855 31.96C22.7861 31.96 22.7866 31.96 22.7872 31.96C22.7878 31.96 22.7884 31.96 22.7889 31.96C22.7895 31.96 22.7901 31.96 22.7907 31.96C22.7912 31.96 22.7918 31.96 22.7924 31.96C22.793 31.96 22.7935 31.96 22.7941 31.96C22.7947 31.96 22.7953 31.96 22.7958 31.96C22.7964 31.96 22.797 31.96 22.7976 31.96C22.7981 31.96 22.7987 31.96 22.7993 31.96C22.7999 31.96 22.8004 31.96 22.801 31.96C22.8016 31.96 22.8022 31.96 22.8028 31.96C22.8033 31.96 22.8039 31.96 22.8045 31.96C22.8051 31.96 22.8056 31.96 22.8062 31.96C22.8068 31.96 22.8074 31.96 22.8079 31.96C22.8085 31.96 22.8091 31.96 22.8097 31.96C22.8103 31.96 22.8108 31.96 22.8114 31.96C22.812 31.96 22.8126 31.96 22.8131 31.96C22.8137 31.96 22.8143 31.96 22.8149 31.96C22.8155 31.96 22.816 31.96 22.8166 31.96C22.8172 31.96 22.8178 31.96 22.8183 31.96C22.8189 31.96 22.8195 31.96 22.8201 31.96C22.8207 31.96 22.8212 31.96 22.8218 31.96C22.8224 31.96 22.823 31.96 22.8236 31.96C22.8241 31.96 22.8247 31.96 22.8253 31.96C22.8259 31.96 22.8265 31.96 22.827 31.96C22.8276 31.96 22.8282 31.96 22.8288 31.96C22.8293 31.96 22.8299 31.96 22.8305 31.96C22.8311 31.96 22.8317 31.96 22.8322 31.96C22.8328 31.96 22.8334 31.96 22.834 31.96C22.8346 31.96 22.8352 31.96 22.8357 31.96C22.8363 31.96 22.8369 31.96 22.8375 31.96C22.8381 31.96 22.8386 31.96 22.8392 31.96C22.8398 31.96 22.8404 31.96 22.841 31.96C22.8415 31.96 22.8421 31.96 22.8427 31.96C22.8433 31.96 22.8439 31.96 22.8444 31.96C22.845 31.96 22.8456 31.96 22.8462 31.96C22.8468 31.96 22.8474 31.96 22.8479 31.96C22.8485 31.96 22.8491 31.96 22.8497 31.96C22.8503 31.96 22.8508 31.96 22.8514 31.96C22.852 31.96 22.8526 31.96 22.8532 31.96C22.8538 31.96 22.8543 31.96 22.8549 31.96C22.8555 31.96 22.8561 31.96 22.8567 31.96C22.8573 31.96 22.8578 31.96 22.8584 31.96C22.859 31.96 22.8596 31.96 22.8602 31.96C22.8608 31.96 22.8613 31.96 22.8619 31.96C22.8625 31.96 22.8631 31.96 22.8637 31.96C22.8643 31.96 22.8648 31.96 22.8654 31.96C22.866 31.96 22.8666 31.96 22.8672 31.96C22.8678 31.96 22.8683 31.96 22.8689 31.96C22.8695 31.96 22.8701 31.96 22.8707 31.96C22.8713 31.96 22.8718 31.96 22.8724 31.96C22.873 31.96 22.8736 31.96 22.8742 31.96C22.8748 31.96 22.8754 31.96 22.8759 31.96C22.8765 31.96 22.8771 31.96 22.8777 31.96C22.8783 31.96 22.8789 31.96 22.8795 31.96C22.88 31.96 22.8806 31.96 22.8812 31.96C22.8818 31.96 22.8824 31.96 22.883 31.96C22.8836 31.96 22.8841 31.96 22.8847 31.96C22.8853 31.96 22.8859 31.96 22.8865 31.96C22.8871 31.96 22.8877 31.96 22.8882 31.96C22.8888 31.96 22.8894 31.96 22.89 31.96C22.8906 31.96 22.8912 31.96 22.8918 31.96C22.8924 31.96 22.8929 31.96 22.8935 31.96C22.8941 31.96 22.8947 31.96 22.8953 31.96C22.8959 31.96 22.8965 31.96 22.8971 31.96C22.8976 31.96 22.8982 31.96 22.8988 31.96C22.8994 31.96 22.9 31.96 22.9006 31.96C22.9012 31.96 22.9018 31.96 22.9023 31.96C22.9029 31.96 22.9035 31.96 22.9041 31.96C22.9047 31.96 22.9053 31.96 22.9059 31.96C22.9065 31.96 22.907 31.96 22.9076 31.96C22.9082 31.96 22.9088 31.96 22.9094 31.96C22.91 31.96 22.9106 31.96 22.9112 31.96C22.9118 31.96 22.9124 31.96 22.9129 31.96C22.9135 31.96 22.9141 31.96 22.9147 31.96C22.9153 31.96 22.9159 31.96 22.9165 31.96C22.9171 31.96 22.9177 31.96 22.9182 31.96C22.9188 31.96 22.9194 31.96 22.92 31.96C22.9206 31.96 22.9212 31.96 22.9218 31.96C22.9224 31.96 22.923 31.96 22.9236 31.96C22.9242 31.96 22.9247 31.96 22.9253 31.96C22.9259 31.96 22.9265 31.96 22.9271 31.96C22.9277 31.96 22.9283 31.96 22.9289 31.96C22.9295 31.96 22.9301 31.96 22.9307 31.96C22.9312 31.96 22.9318 31.96 22.9324 31.96C22.933 31.96 22.9336 31.96 22.9342 31.96C22.9348 31.96 22.9354 31.96 22.936 31.96C22.9366 31.96 22.9372 31.96 22.9378 31.96C22.9383 31.96 22.9389 31.96 22.9395 31.96C22.9401 31.96 22.9407 31.96 22.9413 31.96C22.9419 31.96 22.9425 31.96 22.9431 31.96C22.9437 31.96 22.9443 31.96 22.9449 31.96C22.9455 31.96 22.9461 31.96 22.9466 31.96C22.9472 31.96 22.9478 31.96 22.9484 31.96C22.949 31.96 22.9496 31.96 22.9502 31.96C22.9508 31.96 22.9514 31.96 22.952 31.96C22.9526 31.96 22.9532 31.96 22.9538 31.96C22.9544 31.96 22.955 31.96 22.9556 31.96C22.9561 31.96 22.9567 31.96 22.9573 31.96C22.9579 31.96 22.9585 31.96 22.9591 31.96C22.9597 31.96 22.9603 31.96 22.9609 31.96C22.9615 31.96 22.9621 31.96 22.9627 31.96C22.9633 31.96 22.9639 31.96 22.9645 31.96C22.9651 31.96 22.9657 31.96 22.9663 31.96C22.9669 31.96 22.9675 31.96 22.968 31.96C22.9686 31.96 22.9692 31.96 22.9698 31.96C22.9704 31.96 22.971 31.96 22.9716 31.96C22.9722 31.96 22.9728 31.96 22.9734 31.96C22.974 31.96 22.9746 31.96 22.9752 31.96C22.9758 31.96 22.9764 31.96 22.977 31.96C22.9776 31.96 22.9782 31.96 22.9788 31.96C22.9794 31.96 22.98 31.96 22.9806 31.96C22.9812 31.96 22.9818 31.96 22.9824 31.96C22.983 31.96 22.9836 31.96 22.9842 31.96C22.9848 31.96 22.9854 31.96 22.9859 31.96C22.9865 31.96 22.9871 31.96 22.9877 31.96C22.9883 31.96 22.9889 31.96 22.9895 31.96C22.9901 31.96 22.9907 31.96 22.9913 31.96C22.9919 31.96 22.9925 31.96 22.9931 31.96C22.9937 31.96 22.9943 31.96 22.9949 31.96C22.9955 31.96 22.9961 31.96 22.9967 31.96C22.9973 31.96 22.9979 31.96 22.9985 31.96C22.9991 31.96 22.9997 31.96 23.0003 31.96C23.0009 31.96 23.0015 31.96 23.0021 31.96C23.0027 31.96 23.0033 31.96 23.0039 31.96C23.0045 31.96 23.0051 31.96 23.0057 31.96C23.0063 31.96 23.0069 31.96 23.0075 31.96C23.0081 31.96 23.0087 31.96 23.0093 31.96C23.0099 31.96 23.0105 31.96 23.0111 31.96C23.0117 31.96 23.0123 31.96 23.0129 31.96C23.0135 31.96 23.0141 31.96 23.0147 31.96C23.0153 31.96 23.0159 31.96 23.0165 31.96C23.0171 31.96 23.0177 31.96 23.0183 31.96C23.0189 31.96 23.0195 31.96 23.0201 31.96C23.0207 31.96 23.0213 31.96 23.0219 31.96C23.0225 31.96 23.0231 31.96 23.0237 31.96C23.0243 31.96 23.0249 31.96 23.0255 31.96C23.0261 31.96 23.0268 31.96 23.0274 31.96C23.028 31.96 23.0286 31.96 23.0292 31.96C23.0298 31.96 23.0304 31.96 23.031 31.96C23.0316 31.96 23.0322 31.96 23.0328 31.96C23.0334 31.96 23.034 31.96 23.0346 31.96C23.0352 31.96 23.0358 31.96 23.0364 31.96C23.037 31.96 23.0376 31.96 23.0382 31.96C23.0388 31.96 23.0394 31.96 23.04 31.96C23.0406 31.96 23.0412 31.96 23.0418 31.96C23.0424 31.96 23.043 31.96 23.0436 31.96C23.0442 31.96 23.0449 31.96 23.0455 31.96C23.0461 31.96 23.0467 31.96 23.0473 31.96C23.0479 31.96 23.0485 31.96 23.0491 31.96C23.0497 31.96 23.0503 31.96 23.0509 31.96C23.0515 31.96 23.0521 31.96 23.0527 31.96C23.0533 31.96 23.0539 31.96 23.0545 31.96C23.0551 31.96 23.0557 31.96 23.0563 31.96C23.057 31.96 23.0576 31.96 23.0582 31.96C23.0588 31.96 23.0594 31.96 23.06 31.96C23.0606 31.96 23.0612 31.96 23.0618 31.96C23.0624 31.96 23.063 31.96 23.0636 31.96C23.0642 31.96 23.0648 31.96 23.0654 31.96C23.066 31.96 23.0667 31.96 23.0673 31.96C23.0679 31.96 23.0685 31.96 23.0691 31.96C23.0697 31.96 23.0703 31.96 23.0709 31.96C23.0715 31.96 23.0721 31.96 23.0727 31.96C23.0733 31.96 23.0739 31.96 23.0745 31.96C23.0752 31.96 23.0758 31.96 23.0764 31.96C23.077 31.96 23.0776 31.96 23.0782 31.96C23.0788 31.96 23.0794 31.96 23.08 31.96C23.0806 31.96 23.0812 31.96 23.0818 31.96C23.0825 31.96 23.0831 31.96 23.0837 31.96C23.0843 31.96 23.0849 31.96 23.0855 31.96C23.0861 31.96 23.0867 31.96 23.0873 31.96C23.0879 31.96 23.0885 31.96 23.0892 31.96C23.0898 31.96 23.0904 31.96 23.091 31.96C23.0916 31.96 23.0922 31.96 23.0928 31.96C23.0934 31.96 23.094 31.96 23.0946 31.96C23.0953 31.96 23.0959 31.96 23.0965 31.96C23.0971 31.96 23.0977 31.96 23.0983 31.96C23.0989 31.96 23.0995 31.96 23.1001 31.96C23.1007 31.96 23.1014 31.96 23.102 31.96C23.1026 31.96 23.1032 31.96 23.1038 31.96C23.1044 31.96 23.105 31.96 23.1056 31.96C23.1062 31.96 23.1069 31.96 23.1075 31.96C23.1081 31.96 23.1087 31.96 23.1093 31.96C23.1099 31.96 23.1105 31.96 23.1111 31.96C23.1117 31.96 23.1124 31.96 23.113 31.96C23.1136 31.96 23.1142 31.96 23.1148 31.96C23.1154 31.96 23.116 31.96 23.1166 31.96C23.1173 31.96 23.1179 31.96 23.1185 31.96C23.1191 31.96 23.1197 31.96 23.1203 31.96C23.1209 31.96 23.1215 31.96 23.1222 31.96C23.1228 31.96 23.1234 31.96 23.124 31.96C23.1246 31.96 23.1252 31.96 23.1258 31.96C23.1264 31.96 23.1271 31.96 23.1277 31.96C23.1283 31.96 23.1289 31.96 23.1295 31.96C23.1301 31.96 23.1307 31.96 23.1314 31.96C23.132 31.96 23.1326 31.96 23.1332 31.96C23.1338 31.96 23.1344 31.96 23.135 31.96C23.1357 31.96 23.1363 31.96 23.1369 31.96C23.1375 31.96 23.1381 31.96 23.1387 31.96C23.1393 31.96 23.14 31.96 23.1406 31.96C23.1412 31.96 23.1418 31.96 23.1424 31.96C23.143 31.96 23.1437 31.96 23.1443 31.96C23.1449 31.96 23.1455 31.96 23.1461 31.96C23.1467 31.96 23.1473 31.96 23.148 31.96C23.1486 31.96 23.1492 31.96 23.1498 31.96C23.1504 31.96 23.151 31.96 23.1517 31.96C23.1523 31.96 23.1529 31.96 23.1535 31.96C23.1541 31.96 23.1547 31.96 23.1554 31.96C23.156 31.96 23.1566 31.96 23.1572 31.96C23.1578 31.96 23.1584 31.96 23.1591 31.96C23.1597 31.96 23.1603 31.96 23.1609 31.96C23.1615 31.96 23.1621 31.96 23.1628 31.96C23.1634 31.96 23.164 31.96 23.1646 31.96C23.1652 31.96 23.1658 31.96 23.1665 31.96C23.1671 31.96 23.1677 31.96 23.1683 31.96C23.1689 31.96 23.1696 31.96 23.1702 31.96C23.1708 31.96 23.1714 31.96 23.172 31.96C23.1726 31.96 23.1733 31.96 23.1739 31.96C23.1745 31.96 23.1751 31.96 23.1757 31.96C23.1764 31.96 23.177 31.96 23.1776 31.96C23.1782 31.96 23.1788 31.96 23.1795 31.96C23.1801 31.96 23.1807 31.96 23.1813 31.96C23.1819 31.96 23.1826 31.96 23.1832 31.96C23.1838 31.96 23.1844 31.96 23.185 31.96C23.1857 31.96 23.1863 31.96 23.1869 31.96C23.1875 31.96 23.1881 31.96 23.1888 31.96C23.1894 31.96 23.19 31.96 23.1906 31.96C23.1912 31.96 23.1919 31.96 23.1925 31.96C23.1931 31.96 23.1937 31.96 23.1943 31.96C23.195 31.96 23.1956 31.96 23.1962 31.96C23.1968 31.96 23.1974 31.96 23.1981 31.96C23.1987 31.96 23.1993 31.96 23.1999 31.96C23.2006 31.96 23.2012 31.96 23.2018 31.96C23.2024 31.96 23.203 31.96 23.2037 31.96C23.2043 31.96 23.2049 31.96 23.2055 31.96C23.2062 31.96 23.2068 31.96 23.2074 31.96C23.208 31.96 23.2086 31.96 23.2093 31.96C23.2099 31.96 23.2105 31.96 23.2111 31.96C23.2118 31.96 23.2124 31.96 23.213 31.96C23.2136 31.96 23.2142 31.96 23.2149 31.96C23.2155 31.96 23.2161 31.96 23.2167 31.96C23.2174 31.96 23.218 31.96 23.2186 31.96C23.2192 31.96 23.2199 31.96 23.2205 31.96C23.2211 31.96 23.2217 31.96 23.2224 31.96C23.223 31.96 23.2236 31.96 23.2242 31.96C23.2248 31.96 23.2255 31.96 23.2261 31.96C23.2267 31.96 23.2273 31.96 23.228 31.96C23.2286 31.96 23.2292 31.96 23.2298 31.96C23.2305 31.96 23.2311 31.96 23.2317 31.96C23.2323 31.96 23.233 31.96 23.2336 31.96C23.2342 31.96 23.2348 31.96 23.2355 31.96C23.2361 31.96 23.2367 31.96 23.2373 31.96C23.238 31.96 23.2386 31.96 23.2392 31.96C23.2398 31.96 23.2405 31.96 23.2411 31.96C23.2417 31.96 23.2424 31.96 23.243 31.96C23.2436 31.96 23.2442 31.96 23.2449 31.96C23.2455 31.96 23.2461 31.96 23.2467 31.96C23.2474 31.96 23.248 31.96 23.2486 31.96C23.2492 31.96 23.2499 31.96 23.2505 31.96C23.2511 31.96 23.2518 31.96 23.2524 31.96C23.253 31.96 23.2536 31.96 23.2543 31.96C23.2549 31.96 23.2555 31.96 23.2561 31.96C23.2568 31.96 23.2574 31.96 23.258 31.96C23.2587 31.96 23.2593 31.96 23.2599 31.96C23.2605 31.96 23.2612 31.96 23.2618 31.96C23.2624 31.96 23.2631 31.96 23.2637 31.96C23.2643 31.96 23.2649 31.96 23.2656 31.96C23.2662 31.96 23.2668 31.96 23.2675 31.96C23.2681 31.96 23.2687 31.96 23.2693 31.96C23.27 31.96 23.2706 31.96 23.2712 31.96C23.2719 31.96 23.2725 31.96 23.2731 31.96C23.2737 31.96 23.2744 31.96 23.275 31.96C23.2756 31.96 23.2763 31.96 23.2769 31.96C23.2775 31.96 23.2782 31.96 23.2788 31.96C23.2794 31.96 23.28 31.96 23.2807 31.96C23.2813 31.96 23.2819 31.96 23.2826 31.96C23.2832 31.96 23.2838 31.96 23.2845 31.96C23.2851 31.96 23.2857 31.96 23.2864 31.96C23.287 31.96 23.2876 31.96 23.2882 31.96C23.2889 31.96 23.2895 31.96 23.2901 31.96C23.2908 31.96 23.2914 31.96 23.292 31.96C23.2927 31.96 23.2933 31.96 23.2939 31.96C23.2946 31.96 23.2952 31.96 23.2958 31.96C23.2965 31.96 23.2971 31.96 23.2977 31.96C23.2983 31.96 23.299 31.96 23.2996 31.96C23.3002 31.96 23.3009 31.96 23.3015 31.96C23.3021 31.96 23.3028 31.96 23.3034 31.96C23.304 31.96 23.3047 31.96 23.3053 31.96C23.3059 31.96 23.3066 31.96 23.3072 31.96C23.3078 31.96 23.3085 31.96 23.3091 31.96C23.3097 31.96 23.3104 31.96 23.311 31.96C23.3116 31.96 23.3123 31.96 23.3129 31.96C23.3135 31.96 23.3142 31.96 23.3148 31.96C23.3154 31.96 23.3161 31.96 23.3167 31.96C23.3173 31.96 23.318 31.96 23.3186 31.96C23.3192 31.96 23.3199 31.96 23.3205 31.96C23.3212 31.96 23.3218 31.96 23.3224 31.96C23.3231 31.96 23.3237 31.96 23.3243 31.96C23.325 31.96 23.3256 31.96 23.3262 31.96C23.3269 31.96 23.3275 31.96 23.3281 31.96C23.3288 31.96 23.3294 31.96 23.33 31.96C23.3307 31.96 23.3313 31.96 23.332 31.96C23.3326 31.96 23.3332 31.96 23.3339 31.96C23.3345 31.96 23.3351 31.96 23.3358 31.96C23.3364 31.96 23.337 31.96 23.3377 31.96C23.3383 31.96 23.3389 31.96 23.3396 31.96C23.3402 31.96 23.3409 31.96 23.3415 31.96C23.3421 31.96 23.3428 31.96 23.3434 31.96C23.344 31.96 23.3447 31.96 23.3453 31.96C23.346 31.96 23.3466 31.96 23.3472 31.96C23.3479 31.96 23.3485 31.96 23.3491 31.96C23.3498 31.96 23.3504 31.96 23.3511 31.96C23.3517 31.96 23.3523 31.96 23.353 31.96C23.3536 31.96 23.3542 31.96 23.3549 31.96C23.3555 31.96 23.3562 31.96 23.3568 31.96C23.3574 31.96 23.3581 31.96 23.3587 31.96C23.3594 31.96 23.36 31.96 23.3606 31.96C23.3613 31.96 23.3619 31.96 23.3625 31.96C23.3632 31.96 23.3638 31.96 23.3645 31.96C23.3651 31.96 23.3657 31.96 23.3664 31.96C23.367 31.96 23.3677 31.96 23.3683 31.96C23.3689 31.96 23.3696 31.96 23.3702 31.96C23.3709 31.96 23.3715 31.96 23.3721 31.96C23.3728 31.96 23.3734 31.96 23.3741 31.96C23.3747 31.96 23.3753 31.96 23.376 31.96C23.3766 31.96 23.3773 31.96 23.3779 31.96C23.3785 31.96 23.3792 31.96 23.3798 31.96C23.3805 31.96 23.3811 31.96 23.3817 31.96C23.3824 31.96 23.383 31.96 23.3837 31.96C23.3843 31.96 23.385 31.96 23.3856 31.96C23.3862 31.96 23.3869 31.96 23.3875 31.96C23.3882 31.96 23.3888 31.96 23.3894 31.96C23.3901 31.96 23.3907 31.96 23.3914 31.96C23.392 31.96 23.3927 31.96 23.3933 31.96C23.3939 31.96 23.3946 31.96 23.3952 31.96C23.3959 31.96 23.3965 31.96 23.3972 31.96C23.3978 31.96 23.3984 31.96 23.3991 31.96C23.3997 31.96 23.4004 31.96 23.401 31.96C23.4017 31.96 23.4023 31.96 23.4029 31.96C23.4036 31.96 23.4042 31.96 23.4049 31.96C23.4055 31.96 23.4062 31.96 23.4068 31.96C23.4074 31.96 23.4081 31.96 23.4087 31.96C23.4094 31.96 23.41 31.96 23.4107 31.96C23.4113 31.96 23.412 31.96 23.4126 31.96C23.4132 31.96 23.4139 31.96 23.4145 31.96C23.4152 31.96 23.4158 31.96 23.4165 31.96C23.4171 31.96 23.4178 31.96 23.4184 31.96C23.419 31.96 23.4197 31.96 23.4203 31.96C23.421 31.96 23.4216 31.96 23.4223 31.96C23.4229 31.96 23.4236 31.96 23.4242 31.96C23.4249 31.96 23.4255 31.96 23.4261 31.96C23.4268 31.96 23.4274 31.96 23.4281 31.96C23.4287 31.96 23.4294 31.96 23.43 31.96C23.4307 31.96 23.4313 31.96 23.432 31.96C23.4326 31.96 23.4333 31.96 23.4339 31.96C23.4345 31.96 23.4352 31.96 23.4358 31.96C23.4365 31.96 23.4371 31.96 23.4378 31.96C23.4384 31.96 23.4391 31.96 23.4397 31.96C23.4404 31.96 23.441 31.96 23.4417 31.96C23.4423 31.96 23.443 31.96 23.4436 31.96C23.4443 31.96 23.4449 31.96 23.4455 31.96C23.4462 31.96 23.4468 31.96 23.4475 31.96C23.4481 31.96 23.4488 31.96 23.4494 31.96C23.4501 31.96 23.4507 31.96 23.4514 31.96C23.452 31.96 23.4527 31.96 23.4533 31.96C23.454 31.96 23.4546 31.96 23.4553 31.96C23.4559 31.96 23.4566 31.96 23.4572 31.96C23.4579 31.96 23.4585 31.96 23.4592 31.96C23.4598 31.96 23.4605 31.96 23.4611 31.96C23.4618 31.96 23.4624 31.96 23.4631 31.96C23.4637 31.96 23.4644 31.96 23.465 31.96C23.4657 31.96 23.4663 31.96 23.467 31.96C23.4676 31.96 23.4683 31.96 23.4689 31.96C23.4696 31.96 23.4702 31.96 23.4709 31.96C23.4715 31.96 23.4722 31.96 23.4728 31.96C23.4735 31.96 23.4741 31.96 23.4748 31.96C23.4754 31.96 23.4761 31.96 23.4767 31.96V29.96ZM22.5567 29.96C22.3003 29.96 22.1289 29.9534 22.0273 29.9441L21.8462 31.9359C22.0378 31.9533 22.2798 31.96 22.5567 31.96V29.96ZM22.9347 30.876C22.8687 29.8474 22.8159 28.7442 22.7762 27.5663L20.7773 27.6337C20.8176 28.8291 20.8714 29.9526 20.9388 31.004L22.9347 30.876ZM22.7762 27.5667C22.7363 26.3706 22.7031 25.1612 22.6765 23.9383L20.677 23.9817C20.7037 25.2122 20.7371 26.4294 20.7773 27.6333L22.7762 27.5667ZM22.6767 23.9492C22.6634 22.7128 22.6567 21.4897 22.6567 20.28H20.6567C20.6567 21.497 20.6634 22.7272 20.6768 23.9708L22.6767 23.9492ZM22.6567 20.28C22.6567 19.0569 22.6634 17.8876 22.6766 16.7719L20.6768 16.7481C20.6634 17.8724 20.6567 19.0497 20.6567 20.28H22.6567ZM21.6767 15.76C21.6378 15.76 21.5436 15.756 21.3734 15.7429L21.22 17.7371C21.3965 17.7506 21.5557 17.76 21.6767 17.76V15.76ZM21.3798 15.7435C21.2153 15.7297 21.0379 15.7161 20.848 15.7025L20.7055 17.6975C20.8888 17.7106 21.0582 17.7236 21.2137 17.7365L21.3798 15.7435ZM20.8534 15.7029C20.7055 15.6916 20.5573 15.6745 20.4088 15.6516L20.1047 17.6284C20.3028 17.6589 20.5012 17.6818 20.7 17.6971L20.8534 15.7029ZM20.4211 15.6536C20.3535 15.6423 20.3018 15.6323 20.2636 15.6238C20.2235 15.6149 20.2093 15.6101 20.213 15.6113L19.5805 17.5087C19.7365 17.5607 19.9187 17.5974 20.0923 17.6264L20.4211 15.6536ZM20.8964 16.5844C20.9084 16.0936 20.9625 15.5708 21.0613 15.015L19.0922 14.665C18.9776 15.3092 18.9117 15.9331 18.897 16.5356L20.8964 16.5844ZM21.0573 15.0361C21.1714 14.4656 21.2943 13.9978 21.4224 13.6251L19.531 12.9749C19.3658 13.4556 19.222 14.0144 19.0961 14.6439L21.0573 15.0361ZM20.6842 14.2782C21.0998 14.1901 21.6064 14.1 22.2072 14.0086L21.9063 12.0314C21.2804 12.1266 20.7337 12.2232 20.2692 12.3218L20.6842 14.2782ZM22.2245 14.0058C22.8353 13.9019 23.4599 13.8108 24.0983 13.7326L23.8552 11.7474C23.1869 11.8292 22.5315 11.9248 21.8889 12.0342L22.2245 14.0058ZM24.0959 13.7329C24.7454 13.6549 25.3735 13.5967 25.9804 13.558L25.853 11.562C25.2066 11.6033 24.5414 11.6651 23.8576 11.7471L24.0959 13.7329ZM26.0015 13.5564C26.6118 13.5045 27.1082 13.48 27.4967 13.48V11.48C27.0319 11.48 26.4749 11.5089 25.8319 11.5636L26.0015 13.5564Z" fill="black" mask="url(#path-6-outside-2_909_1903)"/>
</g>
</g>
<defs>
<filter id="filter0_di_909_1903" x="0.608116" y="0.536039" width="46.7838" height="47.7838" filterUnits="userSpaceOnUse" color-interpolation-filters="sRGB">
<feFlood flood-opacity="0" result="BackgroundImageFix"/>
<feColorMatrix in="SourceAlpha" type="matrix" values="0 0 0 0 0 0 0 0 0 0 0 0 0 0 0 0 0 0 127 0" result="hardAlpha"/>
<feMorphology radius="0.927923" operator="dilate" in="SourceAlpha" result="effect1_dropShadow_909_1903"/>
<feOffset dy="0.927923"/>
<feGaussianBlur stdDeviation="0.231981"/>
<feComposite in2="hardAlpha" operator="out"/>
<feColorMatrix type="matrix" values="0 0 0 0 0 0 0 0 0 0 0 0 0 0 0 0 0 0 0.25 0"/>
<feBlend mode="normal" in2="BackgroundImageFix" result="effect1_dropShadow_909_1903"/>
<feBlend mode="normal" in="SourceGraphic" in2="effect1_dropShadow_909_1903" result="shape"/>
<feColorMatrix in="SourceAlpha" type="matrix" values="0 0 0 0 0 0 0 0 0 0 0 0 0 0 0 0 0 0 127 0" result="hardAlpha"/>
<feOffset dy="2.5"/>
<feGaussianBlur stdDeviation="0.25"/>
<feComposite in2="hardAlpha" operator="arithmetic" k2="-1" k3="1"/>
<feColorMatrix type="matrix" values="0 0 0 0 1 0 0 0 0 1 0 0 0 0 1 0 0 0 0.7 0"/>
<feBlend mode="normal" in2="shape" result="effect2_innerShadow_909_1903"/>
</filter>
<filter id="filter1_d_909_1903" x="19.8965" y="12.48" width="7.6001" height="20.48" filterUnits="userSpaceOnUse" color-interpolation-filters="sRGB">
<feFlood flood-opacity="0" result="BackgroundImageFix"/>
<feColorMatrix in="SourceAlpha" type="matrix" values="0 0 0 0 0 0 0 0 0 0 0 0 0 0 0 0 0 0 127 0" result="hardAlpha"/>
<feOffset dy="2"/>
<feComposite in2="hardAlpha" operator="out"/>
<feColorMatrix type="matrix" values="0 0 0 0 0 0 0 0 0 0 0 0 0 0 0 0 0 0 1 0"/>
<feBlend mode="normal" in2="BackgroundImageFix" result="effect1_dropShadow_909_1903"/>
<feBlend mode="normal" in="SourceGraphic" in2="effect1_dropShadow_909_1903" result="shape"/>
</filter>
<linearGradient id="paint0_linear_909_1903" x1="24" y1="1" x2="24" y2="46" gradientUnits="userSpaceOnUse">
<stop stop-color="#FEC200"/>
<stop offset="1" stop-color="#E8B204"/>
</linearGradient>
<linearGradient id="paint1_linear_909_1903" x1="24" y1="7" x2="24" y2="36.5" gradientUnits="userSpaceOnUse">
<stop stop-color="white"/>
<stop offset="1" stop-color="white" stop-opacity="0"/>
</linearGradient>
<linearGradient id="paint2_linear_909_1903" x1="24" y1="14.3735" x2="24" y2="45" gradientUnits="userSpaceOnUse">
<stop stop-color="#2C5C1C" stop-opacity="0"/>
<stop offset="1" stop-color="#285C18" stop-opacity="0.64"/>
</linearGradient>
</defs>
</svg>
