<svg width="48" height="49" viewBox="0 0 48 49" fill="none" xmlns="http://www.w3.org/2000/svg">
<g filter="url(#filter0_di_985_481)">
<mask id="path-1-inside-1_985_481" fill="white">
<path d="M2 11C2 5.47715 6.47715 1 12 1H36C41.5228 1 46 5.47715 46 11V36C46 41.5228 41.5228 46 36 46H12C6.47715 46 2 41.5228 2 36V11Z"/>
</mask>
<path d="M2 11C2 5.47715 6.47715 1 12 1H36C41.5228 1 46 5.47715 46 11V36C46 41.5228 41.5228 46 36 46H12C6.47715 46 2 41.5228 2 36V11Z" fill="url(#paint0_linear_985_481)"/>
<path d="M0.8 11C0.8 4.92487 5.72487 0 11.8 0H36.2C42.2751 0 47.2 4.92487 47.2 11H44.8C44.8 6.02944 40.8601 2 36 2H12C7.13989 2 3.2 6.02944 3.2 11H0.8ZM47.2 36.2C47.2 42.3856 42.1856 47.4 36 47.4H12C5.81441 47.4 0.8 42.3856 0.8 36.2L3.2 36C3.2 40.7496 7.13989 44.6 12 44.6H36C40.8601 44.6 44.8 40.7496 44.8 36L47.2 36.2ZM12 47.4C5.81441 47.4 0.8 42.3856 0.8 36.2V11C0.8 4.92487 5.72487 0 11.8 0L12 2C7.13989 2 3.2 6.02944 3.2 11V36C3.2 40.7496 7.13989 44.6 12 44.6V47.4ZM36.2 0C42.2751 0 47.2 4.92487 47.2 11V36.2C47.2 42.3856 42.1856 47.4 36 47.4V44.6C40.8601 44.6 44.8 40.7496 44.8 36V11C44.8 6.02944 40.8601 2 36 2L36.2 0Z" fill="black" mask="url(#path-1-inside-1_985_481)"/>
<path d="M8 12C8 9.23858 10.2386 7 13 7H35C37.7614 7 40 9.23858 40 12V20C40 23.866 36.866 27 33 27H15C11.134 27 8 23.866 8 20V12Z" fill="url(#paint1_linear_985_481)" fill-opacity="0.53"/>
<rect x="3.75" y="4.75" width="40.5" height="39.5" rx="8.25" stroke="url(#paint2_linear_985_481)" stroke-opacity="0.8" stroke-width="1.5"/>
<g filter="url(#filter1_d_985_481)">
<mask id="path-6-outside-2_985_481" maskUnits="userSpaceOnUse" x="16" y="11" width="17" height="22" fill="black">
<rect fill="white" x="16" y="11" width="17" height="22"/>
<path d="M31.4191 23.96C31.3658 24.4667 31.2791 25.0267 31.1591 25.64C31.0391 26.2533 30.8925 26.8533 30.7191 27.44C30.5591 28.0133 30.3658 28.5333 30.1391 29C29.9258 29.4533 29.6991 29.7867 29.4591 30C29.0991 30.2267 28.6058 30.44 27.9791 30.64C27.3658 30.8267 26.6791 30.9867 25.9191 31.12C25.1725 31.2533 24.3925 31.3667 23.5791 31.46C22.7658 31.5533 21.9791 31.6267 21.2191 31.68C20.4725 31.7467 19.7925 31.78 19.1791 31.78C18.5658 31.7933 18.0791 31.7867 17.7191 31.76C17.6525 31.5333 17.5791 31.2667 17.4991 30.96C17.4191 30.64 17.3525 30.3067 17.2991 29.96C17.2458 29.6 17.2058 29.2333 17.1791 28.86C17.1658 28.4733 17.1791 28.0933 17.2191 27.72C17.8725 27.64 18.5191 27.5667 19.1591 27.5C19.8125 27.4333 20.4458 27.3533 21.0591 27.26C21.6725 27.1667 22.2591 27.0467 22.8191 26.9C23.3925 26.7533 23.9191 26.56 24.3991 26.32C24.5458 26.12 24.6391 25.94 24.6791 25.78C24.7325 25.62 24.7525 25.4467 24.7391 25.26C24.7391 25.06 24.7191 24.84 24.6791 24.6C24.6525 24.36 24.6325 24.0533 24.6191 23.68C24.4858 23.56 24.2258 23.4667 23.8391 23.4C23.4658 23.3333 23.0458 23.2867 22.5791 23.26C22.1258 23.22 21.6725 23.2 21.2191 23.2C20.7658 23.2 20.3858 23.22 20.0791 23.26C20.0525 22.7667 20.0858 22.2133 20.1791 21.6C20.2858 20.9867 20.4258 20.44 20.5991 19.96C20.7591 19.9467 21.0058 19.92 21.3391 19.88C21.6858 19.84 22.0391 19.7933 22.3991 19.74C22.7591 19.6867 23.0925 19.62 23.3991 19.54C23.7191 19.46 23.9391 19.3733 24.0591 19.28C24.1658 18.72 24.1858 18.2733 24.1191 17.94C24.0525 17.6067 23.9325 17.26 23.7591 16.9C23.3725 16.6733 22.8725 16.5267 22.2591 16.46C21.6458 16.3933 21.0191 16.36 20.3791 16.36C19.7525 16.3467 19.1658 16.3533 18.6191 16.38C18.0725 16.4067 17.6791 16.4133 17.4391 16.4C17.4258 16.04 17.4525 15.6467 17.5191 15.22C17.5858 14.78 17.6725 14.36 17.7791 13.96C17.8858 13.5467 18.0058 13.1867 18.1391 12.88C18.2725 12.56 18.3991 12.3533 18.5191 12.26C19.5191 12.1533 20.4458 12.08 21.2991 12.04C22.1525 11.9867 22.9858 11.9867 23.7991 12.04C24.6125 12.08 25.4325 12.18 26.2591 12.34C27.0858 12.5 27.9658 12.72 28.8991 13C29.0325 13.16 29.1791 13.4133 29.3391 13.76C29.5125 14.1067 29.6725 14.4867 29.8191 14.9C29.9658 15.3133 30.0925 15.74 30.1991 16.18C30.3191 16.6067 30.3991 16.9867 30.4391 17.32C30.3325 17.68 30.1658 18.04 29.9391 18.4C29.7258 18.7467 29.4791 19.0733 29.1991 19.38C28.9191 19.6733 28.6191 19.94 28.2991 20.18C27.9925 20.42 27.6925 20.6133 27.3991 20.76C28.1991 21.0267 28.9525 21.4133 29.6591 21.92C30.3791 22.4133 30.9658 23.0933 31.4191 23.96Z"/>
</mask>
<path d="M31.4191 23.96C31.3658 24.4667 31.2791 25.0267 31.1591 25.64C31.0391 26.2533 30.8925 26.8533 30.7191 27.44C30.5591 28.0133 30.3658 28.5333 30.1391 29C29.9258 29.4533 29.6991 29.7867 29.4591 30C29.0991 30.2267 28.6058 30.44 27.9791 30.64C27.3658 30.8267 26.6791 30.9867 25.9191 31.12C25.1725 31.2533 24.3925 31.3667 23.5791 31.46C22.7658 31.5533 21.9791 31.6267 21.2191 31.68C20.4725 31.7467 19.7925 31.78 19.1791 31.78C18.5658 31.7933 18.0791 31.7867 17.7191 31.76C17.6525 31.5333 17.5791 31.2667 17.4991 30.96C17.4191 30.64 17.3525 30.3067 17.2991 29.96C17.2458 29.6 17.2058 29.2333 17.1791 28.86C17.1658 28.4733 17.1791 28.0933 17.2191 27.72C17.8725 27.64 18.5191 27.5667 19.1591 27.5C19.8125 27.4333 20.4458 27.3533 21.0591 27.26C21.6725 27.1667 22.2591 27.0467 22.8191 26.9C23.3925 26.7533 23.9191 26.56 24.3991 26.32C24.5458 26.12 24.6391 25.94 24.6791 25.78C24.7325 25.62 24.7525 25.4467 24.7391 25.26C24.7391 25.06 24.7191 24.84 24.6791 24.6C24.6525 24.36 24.6325 24.0533 24.6191 23.68C24.4858 23.56 24.2258 23.4667 23.8391 23.4C23.4658 23.3333 23.0458 23.2867 22.5791 23.26C22.1258 23.22 21.6725 23.2 21.2191 23.2C20.7658 23.2 20.3858 23.22 20.0791 23.26C20.0525 22.7667 20.0858 22.2133 20.1791 21.6C20.2858 20.9867 20.4258 20.44 20.5991 19.96C20.7591 19.9467 21.0058 19.92 21.3391 19.88C21.6858 19.84 22.0391 19.7933 22.3991 19.74C22.7591 19.6867 23.0925 19.62 23.3991 19.54C23.7191 19.46 23.9391 19.3733 24.0591 19.28C24.1658 18.72 24.1858 18.2733 24.1191 17.94C24.0525 17.6067 23.9325 17.26 23.7591 16.9C23.3725 16.6733 22.8725 16.5267 22.2591 16.46C21.6458 16.3933 21.0191 16.36 20.3791 16.36C19.7525 16.3467 19.1658 16.3533 18.6191 16.38C18.0725 16.4067 17.6791 16.4133 17.4391 16.4C17.4258 16.04 17.4525 15.6467 17.5191 15.22C17.5858 14.78 17.6725 14.36 17.7791 13.96C17.8858 13.5467 18.0058 13.1867 18.1391 12.88C18.2725 12.56 18.3991 12.3533 18.5191 12.26C19.5191 12.1533 20.4458 12.08 21.2991 12.04C22.1525 11.9867 22.9858 11.9867 23.7991 12.04C24.6125 12.08 25.4325 12.18 26.2591 12.34C27.0858 12.5 27.9658 12.72 28.8991 13C29.0325 13.16 29.1791 13.4133 29.3391 13.76C29.5125 14.1067 29.6725 14.4867 29.8191 14.9C29.9658 15.3133 30.0925 15.74 30.1991 16.18C30.3191 16.6067 30.3991 16.9867 30.4391 17.32C30.3325 17.68 30.1658 18.04 29.9391 18.4C29.7258 18.7467 29.4791 19.0733 29.1991 19.38C28.9191 19.6733 28.6191 19.94 28.2991 20.18C27.9925 20.42 27.6925 20.6133 27.3991 20.76C28.1991 21.0267 28.9525 21.4133 29.6591 21.92C30.3791 22.4133 30.9658 23.0933 31.4191 23.96Z" fill="white"/>
<path d="M31.4191 23.96L32.4136 24.0647L32.4453 23.7642L32.3052 23.4965L31.4191 23.96ZM31.1591 25.64L32.1405 25.832L31.1591 25.64ZM30.7191 27.44L29.7601 27.1567L29.758 27.1639L29.7559 27.1712L30.7191 27.44ZM30.1391 29L29.2396 28.5631L29.2343 28.5742L30.1391 29ZM29.4591 30L29.992 30.8462L30.0618 30.8022L30.1235 30.7474L29.4591 30ZM27.9791 30.64L28.2703 31.5968L28.2832 31.5927L27.9791 30.64ZM25.9191 31.12L25.7463 30.135L25.7434 30.1356L25.9191 31.12ZM23.5791 31.46L23.6931 32.4535L23.5791 31.46ZM21.2191 31.68L21.1491 30.6825L21.1397 30.6831L21.1302 30.684L21.2191 31.68ZM19.1791 31.78V30.78H19.1683L19.1574 30.7802L19.1791 31.78ZM17.7191 31.76L16.7598 32.0422L16.9551 32.7061L17.6453 32.7573L17.7191 31.76ZM17.4991 30.96L16.5289 31.2025L16.5315 31.2124L17.4991 30.96ZM17.2991 29.96L16.3099 30.1066L16.3108 30.1121L17.2991 29.96ZM17.1791 28.86L16.1797 28.8945L16.1804 28.9129L16.1817 28.9312L17.1791 28.86ZM17.2191 27.72L17.0976 26.7274L16.3094 26.8239L16.2248 27.6135L17.2191 27.72ZM19.1591 27.5L19.0576 26.5052L19.0555 26.5054L19.1591 27.5ZM22.8191 26.9L22.5713 25.9312L22.5658 25.9326L22.8191 26.9ZM24.3991 26.32L24.8464 27.2144L25.0626 27.1063L25.2055 26.9114L24.3991 26.32ZM24.6791 25.78L23.7305 25.4638L23.7183 25.5002L23.709 25.5375L24.6791 25.78ZM24.7391 25.26H23.7391V25.2957L23.7417 25.3312L24.7391 25.26ZM24.6791 24.6L23.6853 24.7104L23.6883 24.7375L23.6927 24.7644L24.6791 24.6ZM24.6191 23.68L25.6185 23.6443L25.6034 23.2204L25.2881 22.9367L24.6191 23.68ZM23.8391 23.4L23.6633 24.3844L23.6692 24.3855L23.8391 23.4ZM22.5791 23.26L22.4912 24.2561L22.5067 24.2575L22.5221 24.2584L22.5791 23.26ZM20.0791 23.26L19.0806 23.314L19.1388 24.3911L20.2085 24.2516L20.0791 23.26ZM20.1791 21.6L19.1939 21.4287L19.1921 21.4391L19.1905 21.4496L20.1791 21.6ZM20.5991 19.96L20.5161 18.9635L19.8766 19.0167L19.6586 19.6204L20.5991 19.96ZM21.3391 19.88L21.2245 18.8866L21.22 18.8871L21.3391 19.88ZM23.3991 19.54L23.1566 18.5698L23.1467 18.5724L23.3991 19.54ZM24.0591 19.28L24.6731 20.0694L24.9709 19.8377L25.0415 19.4671L24.0591 19.28ZM24.1191 17.94L23.1386 18.1361V18.1361L24.1191 17.94ZM23.7591 16.9L24.6601 16.4662L24.5279 16.1915L24.2649 16.0373L23.7591 16.9ZM20.3791 16.36L20.3579 17.3598L20.3685 17.36H20.3791V16.36ZM18.6191 16.38L18.6679 17.3788H18.6679L18.6191 16.38ZM17.4391 16.4L16.4398 16.437L16.4736 17.3479L17.3837 17.3985L17.4391 16.4ZM17.5191 15.22L18.5072 15.3744L18.5079 15.3698L17.5191 15.22ZM17.7791 13.96L18.7454 14.2177L18.7474 14.2099L17.7791 13.96ZM18.1391 12.88L19.0562 13.2787L19.0593 13.2717L19.0622 13.2646L18.1391 12.88ZM18.5191 12.26L18.4131 11.2656L18.13 11.2958L17.9052 11.4706L18.5191 12.26ZM21.2991 12.04L21.346 13.0389L21.3537 13.0385L21.3615 13.0381L21.2991 12.04ZM23.7991 12.04L23.7337 13.0379L23.7419 13.0384L23.75 13.0388L23.7991 12.04ZM26.2591 12.34L26.0691 13.3218L26.0691 13.3218L26.2591 12.34ZM28.8991 13L29.6674 12.3598L29.4747 12.1286L29.1865 12.0422L28.8991 13ZM29.3391 13.76L28.4312 14.1791L28.4377 14.1932L28.4447 14.2072L29.3391 13.76ZM29.8191 14.9L30.7616 14.5656L30.7616 14.5656L29.8191 14.9ZM30.1991 16.18L29.2273 16.4156L29.2316 16.4333L29.2365 16.4507L30.1991 16.18ZM30.4391 17.32L31.3979 17.6041L31.4566 17.406L31.432 17.2009L30.4391 17.32ZM29.9391 18.4L29.0929 17.8672L29.0875 17.8759L29.9391 18.4ZM29.1991 19.38L29.9225 20.0705L29.9302 20.0625L29.9376 20.0543L29.1991 19.38ZM28.2991 20.18L27.6991 19.38L27.6909 19.3862L27.6828 19.3925L28.2991 20.18ZM27.3991 20.76L26.9519 19.8656L24.7926 20.9452L27.0829 21.7087L27.3991 20.76ZM29.6591 21.92L29.0765 22.7327L29.0851 22.7389L29.0939 22.7449L29.6591 21.92ZM30.4246 23.8553C30.375 24.327 30.2933 24.8574 30.1777 25.448L32.1405 25.832C32.265 25.196 32.3566 24.6063 32.4136 24.0647L30.4246 23.8553ZM30.1777 25.448C30.0636 26.0312 29.9244 26.6007 29.7601 27.1567L31.6782 27.7233C31.8606 27.106 32.0146 26.4755 32.1405 25.832L30.1777 25.448ZM29.7559 27.1712C29.6098 27.695 29.4366 28.1576 29.2396 28.5631L31.0386 29.4369C31.295 28.909 31.5085 28.3317 31.6823 27.7088L29.7559 27.1712ZM29.2343 28.5742C29.0498 28.9664 28.8931 29.1652 28.7948 29.2526L30.1235 30.7474C30.5052 30.4081 30.8019 29.9403 31.044 29.4258L29.2343 28.5742ZM28.9263 29.1538C28.6655 29.318 28.26 29.5007 27.6751 29.6873L28.2832 31.5927C28.9516 31.3793 29.5328 31.1353 29.992 30.8462L28.9263 29.1538ZM27.688 29.6833C27.1204 29.8561 26.4741 30.0074 25.7463 30.135L26.0919 32.105C26.8842 31.966 27.6113 31.7973 28.2703 31.5967L27.688 29.6833ZM25.7434 30.1356C25.0187 30.265 24.2594 30.3754 23.4651 30.4665L23.6931 32.4535C24.5256 32.358 25.3262 32.2417 26.0949 32.1044L25.7434 30.1356ZM23.4651 30.4665C22.6654 30.5583 21.8934 30.6302 21.1491 30.6825L21.2891 32.6775C22.0649 32.6231 22.8662 32.5484 23.6931 32.4535L23.4651 30.4665ZM21.1302 30.684C20.4069 30.7485 19.7571 30.78 19.1791 30.78V32.78C19.8278 32.78 20.5381 32.7448 21.3081 32.676L21.1302 30.684ZM19.1574 30.7802C18.5573 30.7933 18.1068 30.786 17.793 30.7627L17.6453 32.7573C18.0515 32.7874 18.5743 32.7934 19.2009 32.7798L19.1574 30.7802ZM18.6785 31.4778C18.6155 31.2637 18.545 31.0074 18.4668 30.7076L16.5315 31.2124C16.6133 31.5259 16.6894 31.803 16.7598 32.0422L18.6785 31.4778ZM18.4693 30.7175C18.3972 30.4291 18.3365 30.1261 18.2875 29.8079L16.3108 30.1121C16.3685 30.4872 16.4411 30.8509 16.529 31.2025L18.4693 30.7175ZM18.2883 29.8135C18.2388 29.4791 18.2015 29.1376 18.1766 28.7888L16.1817 28.9312C16.2101 29.3291 16.2528 29.7209 16.3099 30.1065L18.2883 29.8135ZM18.1785 28.8255C18.1668 28.4845 18.1786 28.1516 18.2134 27.8265L16.2248 27.6135C16.1797 28.035 16.1648 28.4622 16.1797 28.8945L18.1785 28.8255ZM17.3407 28.7126C17.9882 28.6333 18.6289 28.5606 19.2627 28.4946L19.0555 26.5054C18.4094 26.5727 17.7568 26.6467 17.0976 26.7274L17.3407 28.7126ZM19.2607 28.4948C19.9294 28.4266 20.5791 28.3446 21.2096 28.2486L20.9087 26.2714C20.3125 26.3621 19.6955 26.4401 19.0576 26.5052L19.2607 28.4948ZM21.2096 28.2486C21.8551 28.1504 22.4763 28.0235 23.0725 27.8674L22.5658 25.9326C22.042 26.0698 21.4898 26.1829 20.9087 26.2714L21.2096 28.2486ZM23.067 27.8688C23.7023 27.7063 24.2966 27.4893 24.8464 27.2144L23.9519 25.4256C23.5417 25.6307 23.0827 25.8004 22.5713 25.9312L23.067 27.8688ZM25.2055 26.9114C25.394 26.6544 25.5661 26.3551 25.6493 26.0225L23.709 25.5375C23.7116 25.527 23.71 25.5387 23.6914 25.5747C23.673 25.6102 23.6421 25.6614 23.5927 25.7286L25.2055 26.9114ZM25.6278 26.0962C25.7271 25.7985 25.7583 25.4921 25.7366 25.1888L23.7417 25.3312C23.7467 25.4012 23.7379 25.4415 23.7305 25.4638L25.6278 26.0962ZM25.7391 25.26C25.7391 24.9946 25.7127 24.7187 25.6655 24.4356L23.6927 24.7644C23.7256 24.9613 23.7391 25.1254 23.7391 25.26H25.7391ZM25.673 24.4896C25.6502 24.2839 25.6314 24.0046 25.6185 23.6443L23.6198 23.7157C23.6336 24.1021 23.6548 24.4361 23.6853 24.7104L25.673 24.4896ZM25.2881 22.9367C24.9248 22.6097 24.4082 22.4834 24.009 22.4145L23.6692 24.3855C23.8271 24.4127 23.9283 24.4404 23.9863 24.4612C24.0141 24.4712 24.023 24.4764 24.0186 24.474C24.0148 24.472 23.9876 24.457 23.9502 24.4233L25.2881 22.9367ZM24.0149 22.4156C23.5946 22.3405 23.1339 22.2901 22.6362 22.2616L22.5221 24.2584C22.9577 24.2833 23.3371 24.3262 23.6634 24.3844L24.0149 22.4156ZM22.667 22.2639C22.1846 22.2213 21.7019 22.2 21.2191 22.2V24.2C21.643 24.2 22.067 24.2187 22.4912 24.2561L22.667 22.2639ZM21.2191 22.2C20.7405 22.2 20.3141 22.2209 19.9498 22.2684L20.2085 24.2516C20.4575 24.2191 20.7911 24.2 21.2191 24.2V22.2ZM21.0777 23.206C21.0555 22.7957 21.0822 22.3125 21.1678 21.7504L19.1905 21.4496C19.0894 22.1142 19.0494 22.7376 19.0806 23.314L21.0777 23.206ZM21.1644 21.7713C21.2631 21.2033 21.3899 20.7146 21.5397 20.2996L19.6586 19.6204C19.4618 20.1654 19.3085 20.77 19.1939 21.4287L21.1644 21.7713ZM20.6822 20.9565C20.8613 20.9416 21.1229 20.9131 21.4583 20.8729L21.22 18.8871C20.8887 18.9269 20.657 18.9517 20.5161 18.9635L20.6822 20.9565ZM21.4538 20.8734C21.8115 20.8321 22.1755 20.784 22.5457 20.7292L22.2526 18.7508C21.9028 18.8026 21.5601 18.8479 21.2245 18.8866L21.4538 20.8734ZM22.5457 20.7292C22.9362 20.6713 23.3054 20.5979 23.6516 20.5076L23.1467 18.5724C22.8796 18.6421 22.582 18.702 22.2526 18.7508L22.5457 20.7292ZM23.6417 20.5101C23.9751 20.4268 24.3751 20.3011 24.6731 20.0694L23.4452 18.4906C23.4712 18.4704 23.4865 18.4629 23.4825 18.465C23.4793 18.4666 23.4655 18.4736 23.4376 18.4846C23.3803 18.5072 23.2896 18.5366 23.1566 18.5699L23.6417 20.5101ZM25.0415 19.4671C25.1582 18.8546 25.2032 18.261 25.0997 17.7439L23.1386 18.1361C23.1685 18.2856 23.1735 18.5854 23.0768 19.0929L25.0415 19.4671ZM25.0997 17.7439C25.014 17.3154 24.8637 16.8889 24.6601 16.4662L22.8581 17.3338C23.0013 17.6311 23.0909 17.8979 23.1386 18.1361L25.0997 17.7439ZM24.2649 16.0373C23.7197 15.7177 23.0713 15.5424 22.3672 15.4659L22.1511 17.4541C22.6737 17.5109 23.0253 17.629 23.2534 17.7627L24.2649 16.0373ZM22.3672 15.4659C21.7167 15.3951 21.0539 15.36 20.3791 15.36V17.36C20.9844 17.36 21.5749 17.3915 22.1511 17.4541L22.3672 15.4659ZM20.4004 15.3602C19.7537 15.3465 19.1435 15.3532 18.5704 15.3812L18.6679 17.3788C19.1882 17.3534 19.7513 17.3469 20.3579 17.3598L20.4004 15.3602ZM18.5704 15.3812C18.0261 15.4077 17.6781 15.4117 17.4946 15.4015L17.3837 17.3985C17.6802 17.4149 18.1189 17.4056 18.6679 17.3788L18.5704 15.3812ZM18.4385 16.363C18.4279 16.0781 18.4485 15.7498 18.5072 15.3744L16.5311 15.0656C16.4565 15.5435 16.4237 16.0019 16.4398 16.437L18.4385 16.363ZM18.5079 15.3698C18.5694 14.9635 18.6489 14.5796 18.7454 14.2177L16.8129 13.7023C16.6961 14.1404 16.6022 14.5965 16.5304 15.0702L18.5079 15.3698ZM18.7474 14.2099C18.8444 13.8343 18.9486 13.5262 19.0562 13.2787L17.2221 12.4813C17.063 12.8472 16.9273 13.2591 16.8109 13.7101L18.7474 14.2099ZM19.0622 13.2646C19.1167 13.1339 19.1592 13.0525 19.1867 13.0076C19.1999 12.986 19.2049 12.9808 19.2003 12.9864C19.1964 12.9911 19.1749 13.0168 19.1331 13.0494L17.9052 11.4706C17.5593 11.7397 17.351 12.1715 17.2161 12.4954L19.0622 13.2646ZM18.6252 13.2544C19.6088 13.1494 20.5155 13.0778 21.346 13.0389L21.2523 11.0411C20.3761 11.0822 19.4294 11.1572 18.4131 11.2656L18.6252 13.2544ZM21.3615 13.0381C22.1744 12.9872 22.9649 12.9874 23.7337 13.0379L23.8646 11.0421C23.0067 10.9859 22.1306 10.9861 21.2368 11.0419L21.3615 13.0381ZM23.75 13.0388C24.5145 13.0764 25.2874 13.1705 26.0691 13.3218L26.4492 11.3582C25.5776 11.1895 24.7105 11.0836 23.8483 11.0412L23.75 13.0388ZM26.0691 13.3218C26.8583 13.4745 27.7056 13.686 28.6118 13.9578L29.1865 12.0422C28.226 11.754 27.3133 11.5255 26.4492 11.3582L26.0691 13.3218ZM28.1309 13.6402C28.1797 13.6987 28.2828 13.8576 28.4312 14.1791L30.2471 13.3409C30.0755 12.9691 29.8852 12.6213 29.6674 12.3598L28.1309 13.6402ZM28.4447 14.2072C28.5976 14.5129 28.742 14.8547 28.8767 15.2344L30.7616 14.5656C30.603 14.1186 30.4274 13.7004 30.2336 13.3128L28.4447 14.2072ZM28.8767 15.2344C29.0115 15.6143 29.1285 16.0079 29.2273 16.4156L31.171 15.9444C31.0565 15.4721 30.9201 15.0124 30.7616 14.5656L28.8767 15.2344ZM29.2365 16.4507C29.3467 16.8425 29.414 17.1703 29.4463 17.4391L31.432 17.2009C31.3843 16.8031 31.2916 16.3709 31.1618 15.9093L29.2365 16.4507ZM29.4803 17.0359C29.4028 17.2975 29.2772 17.5745 29.0929 17.8672L30.7854 18.9328C31.0544 18.5055 31.2621 18.0625 31.3979 17.6041L29.4803 17.0359ZM29.0875 17.8759C28.9077 18.168 28.6992 18.4445 28.4607 18.7057L29.9376 20.0543C30.2591 19.7021 30.5439 19.3253 30.7908 18.9241L29.0875 17.8759ZM28.4758 18.6895C28.2333 18.9436 27.9745 19.1735 27.6991 19.38L28.8991 20.98C29.2638 20.7065 29.605 20.4031 29.9225 20.0705L28.4758 18.6895ZM27.6828 19.3925C27.4193 19.5987 27.1756 19.7537 26.9519 19.8656L27.8464 21.6544C28.2094 21.4729 28.5656 21.2413 28.9154 20.9675L27.6828 19.3925ZM27.0829 21.7087C27.7848 21.9427 28.4487 22.2826 29.0765 22.7327L30.2418 21.1073C29.4562 20.544 28.6134 20.1107 27.7154 19.8113L27.0829 21.7087ZM29.0939 22.7449C29.6634 23.1351 30.1462 23.684 30.533 24.4235L32.3052 23.4965C31.7854 22.5027 31.0949 21.6915 30.2244 21.0951L29.0939 22.7449Z" fill="black" mask="url(#path-6-outside-2_985_481)"/>
</g>
</g>
<defs>
<filter id="filter0_di_985_481" x="0.608116" y="0.536039" width="46.7838" height="47.7838" filterUnits="userSpaceOnUse" color-interpolation-filters="sRGB">
<feFlood flood-opacity="0" result="BackgroundImageFix"/>
<feColorMatrix in="SourceAlpha" type="matrix" values="0 0 0 0 0 0 0 0 0 0 0 0 0 0 0 0 0 0 127 0" result="hardAlpha"/>
<feMorphology radius="0.927923" operator="dilate" in="SourceAlpha" result="effect1_dropShadow_985_481"/>
<feOffset dy="0.927923"/>
<feGaussianBlur stdDeviation="0.231981"/>
<feComposite in2="hardAlpha" operator="out"/>
<feColorMatrix type="matrix" values="0 0 0 0 0 0 0 0 0 0 0 0 0 0 0 0 0 0 0.25 0"/>
<feBlend mode="normal" in2="BackgroundImageFix" result="effect1_dropShadow_985_481"/>
<feBlend mode="normal" in="SourceGraphic" in2="effect1_dropShadow_985_481" result="shape"/>
<feColorMatrix in="SourceAlpha" type="matrix" values="0 0 0 0 0 0 0 0 0 0 0 0 0 0 0 0 0 0 127 0" result="hardAlpha"/>
<feOffset dy="2.5"/>
<feGaussianBlur stdDeviation="0.25"/>
<feComposite in2="hardAlpha" operator="arithmetic" k2="-1" k3="1"/>
<feColorMatrix type="matrix" values="0 0 0 0 1 0 0 0 0 1 0 0 0 0 1 0 0 0 0.7 0"/>
<feBlend mode="normal" in2="shape" result="effect2_innerShadow_985_481"/>
</filter>
<filter id="filter1_d_985_481" x="17.1592" y="11.96" width="14.2598" height="21.8401" filterUnits="userSpaceOnUse" color-interpolation-filters="sRGB">
<feFlood flood-opacity="0" result="BackgroundImageFix"/>
<feColorMatrix in="SourceAlpha" type="matrix" values="0 0 0 0 0 0 0 0 0 0 0 0 0 0 0 0 0 0 127 0" result="hardAlpha"/>
<feOffset dy="2"/>
<feComposite in2="hardAlpha" operator="out"/>
<feColorMatrix type="matrix" values="0 0 0 0 0 0 0 0 0 0 0 0 0 0 0 0 0 0 1 0"/>
<feBlend mode="normal" in2="BackgroundImageFix" result="effect1_dropShadow_985_481"/>
<feBlend mode="normal" in="SourceGraphic" in2="effect1_dropShadow_985_481" result="shape"/>
</filter>
<linearGradient id="paint0_linear_985_481" x1="24" y1="1" x2="24" y2="46" gradientUnits="userSpaceOnUse">
<stop stop-color="#BAD68C"/>
<stop offset="1" stop-color="#89BF61"/>
</linearGradient>
<linearGradient id="paint1_linear_985_481" x1="24" y1="7" x2="24" y2="36.5" gradientUnits="userSpaceOnUse">
<stop stop-color="white"/>
<stop offset="1" stop-color="white" stop-opacity="0"/>
</linearGradient>
<linearGradient id="paint2_linear_985_481" x1="24" y1="14.3735" x2="24" y2="45" gradientUnits="userSpaceOnUse">
<stop stop-color="#2C5C1C" stop-opacity="0"/>
<stop offset="1" stop-color="#285C18" stop-opacity="0.64"/>
</linearGradient>
</defs>
</svg>
