<svg width="48" height="49" viewBox="0 0 48 49" fill="none" xmlns="http://www.w3.org/2000/svg">
<g filter="url(#filter0_di_985_477)">
<mask id="path-1-inside-1_985_477" fill="white">
<path d="M2 11C2 5.47715 6.47715 1 12 1H36C41.5228 1 46 5.47715 46 11V36C46 41.5228 41.5228 46 36 46H12C6.47715 46 2 41.5228 2 36V11Z"/>
</mask>
<path d="M2 11C2 5.47715 6.47715 1 12 1H36C41.5228 1 46 5.47715 46 11V36C46 41.5228 41.5228 46 36 46H12C6.47715 46 2 41.5228 2 36V11Z" fill="url(#paint0_linear_985_477)"/>
<path d="M0.8 11C0.8 4.92487 5.72487 0 11.8 0H36.2C42.2751 0 47.2 4.92487 47.2 11H44.8C44.8 6.02944 40.8601 2 36 2H12C7.13989 2 3.2 6.02944 3.2 11H0.8ZM47.2 36.2C47.2 42.3856 42.1856 47.4 36 47.4H12C5.81441 47.4 0.8 42.3856 0.8 36.2L3.2 36C3.2 40.7496 7.13989 44.6 12 44.6H36C40.8601 44.6 44.8 40.7496 44.8 36L47.2 36.2ZM12 47.4C5.81441 47.4 0.8 42.3856 0.8 36.2V11C0.8 4.92487 5.72487 0 11.8 0L12 2C7.13989 2 3.2 6.02944 3.2 11V36C3.2 40.7496 7.13989 44.6 12 44.6V47.4ZM36.2 0C42.2751 0 47.2 4.92487 47.2 11V36.2C47.2 42.3856 42.1856 47.4 36 47.4V44.6C40.8601 44.6 44.8 40.7496 44.8 36V11C44.8 6.02944 40.8601 2 36 2L36.2 0Z" fill="black" mask="url(#path-1-inside-1_985_477)"/>
<path d="M8 12C8 9.23858 10.2386 7 13 7H35C37.7614 7 40 9.23858 40 12V20C40 23.866 36.866 27 33 27H15C11.134 27 8 23.866 8 20V12Z" fill="url(#paint1_linear_985_477)" fill-opacity="0.53"/>
<rect x="3.75" y="4.75" width="40.5" height="39.5" rx="8.25" stroke="url(#paint2_linear_985_477)" stroke-opacity="0.8" stroke-width="1.5"/>
<g filter="url(#filter1_d_985_477)">
<mask id="path-6-outside-2_985_477" maskUnits="userSpaceOnUse" x="16" y="11" width="16" height="22" fill="black">
<rect fill="white" x="16" y="11" width="16" height="22"/>
<path d="M30.8023 20.46C30.389 20.86 29.9023 21.2733 29.3423 21.7C28.7957 22.1133 28.2023 22.5333 27.5623 22.96C26.9223 23.3733 26.249 23.7933 25.5423 24.22C24.849 24.6467 24.1423 25.0667 23.4223 25.48C23.369 25.52 23.329 25.5933 23.3023 25.7C23.289 25.8067 23.289 25.9267 23.3023 26.06C23.329 26.1933 23.3623 26.3133 23.4023 26.42C23.4557 26.5133 23.509 26.58 23.5623 26.62C23.6957 26.6733 23.9223 26.7267 24.2423 26.78C24.5757 26.8333 24.9557 26.8733 25.3823 26.9C25.8223 26.9133 26.2957 26.9333 26.8023 26.96C27.309 26.9733 27.8023 26.98 28.2823 26.98C28.7757 26.98 29.2357 26.9733 29.6623 26.96C30.089 26.9467 30.4423 26.94 30.7223 26.94C30.7357 27.14 30.7357 27.4067 30.7223 27.74C30.7223 28.06 30.7023 28.4067 30.6623 28.78C30.6223 29.14 30.569 29.5 30.5023 29.86C30.4357 30.2067 30.349 30.5 30.2423 30.74C29.309 30.82 28.269 30.9067 27.1223 31C25.989 31.08 24.8357 31.14 23.6623 31.18C22.5023 31.22 21.3757 31.2133 20.2823 31.16C19.189 31.12 18.2223 30.9933 17.3823 30.78C17.329 30.34 17.2757 29.8 17.2223 29.16C17.169 28.52 17.1357 27.8533 17.1223 27.16C17.109 26.4533 17.1223 25.7533 17.1623 25.06C17.2023 24.3533 17.289 23.7133 17.4223 23.14C18.009 22.7533 18.6823 22.32 19.4423 21.84C20.2023 21.36 20.9557 20.9 21.7023 20.46C22.449 20.0067 23.1357 19.5933 23.7623 19.22C24.389 18.8333 24.8623 18.56 25.1823 18.4C25.289 17.96 25.3157 17.5933 25.2623 17.3C25.2223 16.9933 25.109 16.7267 24.9223 16.5C24.469 16.4733 23.909 16.4733 23.2423 16.5C22.5757 16.5267 21.889 16.5667 21.1823 16.62C20.4757 16.66 19.789 16.7133 19.1223 16.78C18.469 16.8333 17.9223 16.8867 17.4823 16.94C17.4957 16.6467 17.5157 16.32 17.5423 15.96C17.5823 15.5867 17.629 15.22 17.6823 14.86C17.7357 14.4867 17.7957 14.1333 17.8623 13.8C17.9423 13.4667 18.029 13.1867 18.1223 12.96C18.5357 12.84 19.049 12.7267 19.6623 12.62C20.2757 12.5133 20.929 12.42 21.6223 12.34C22.329 12.26 23.049 12.1933 23.7823 12.14C24.529 12.0733 25.2423 12.04 25.9223 12.04C26.6157 12.0267 27.249 12.0333 27.8223 12.06C28.409 12.0867 28.889 12.14 29.2623 12.22C29.609 12.82 29.8823 13.4467 30.0823 14.1C30.2957 14.74 30.4557 15.4067 30.5623 16.1C30.669 16.7933 30.7357 17.5067 30.7623 18.24C30.789 18.96 30.8023 19.7 30.8023 20.46Z"/>
</mask>
<path d="M30.8023 20.46C30.389 20.86 29.9023 21.2733 29.3423 21.7C28.7957 22.1133 28.2023 22.5333 27.5623 22.96C26.9223 23.3733 26.249 23.7933 25.5423 24.22C24.849 24.6467 24.1423 25.0667 23.4223 25.48C23.369 25.52 23.329 25.5933 23.3023 25.7C23.289 25.8067 23.289 25.9267 23.3023 26.06C23.329 26.1933 23.3623 26.3133 23.4023 26.42C23.4557 26.5133 23.509 26.58 23.5623 26.62C23.6957 26.6733 23.9223 26.7267 24.2423 26.78C24.5757 26.8333 24.9557 26.8733 25.3823 26.9C25.8223 26.9133 26.2957 26.9333 26.8023 26.96C27.309 26.9733 27.8023 26.98 28.2823 26.98C28.7757 26.98 29.2357 26.9733 29.6623 26.96C30.089 26.9467 30.4423 26.94 30.7223 26.94C30.7357 27.14 30.7357 27.4067 30.7223 27.74C30.7223 28.06 30.7023 28.4067 30.6623 28.78C30.6223 29.14 30.569 29.5 30.5023 29.86C30.4357 30.2067 30.349 30.5 30.2423 30.74C29.309 30.82 28.269 30.9067 27.1223 31C25.989 31.08 24.8357 31.14 23.6623 31.18C22.5023 31.22 21.3757 31.2133 20.2823 31.16C19.189 31.12 18.2223 30.9933 17.3823 30.78C17.329 30.34 17.2757 29.8 17.2223 29.16C17.169 28.52 17.1357 27.8533 17.1223 27.16C17.109 26.4533 17.1223 25.7533 17.1623 25.06C17.2023 24.3533 17.289 23.7133 17.4223 23.14C18.009 22.7533 18.6823 22.32 19.4423 21.84C20.2023 21.36 20.9557 20.9 21.7023 20.46C22.449 20.0067 23.1357 19.5933 23.7623 19.22C24.389 18.8333 24.8623 18.56 25.1823 18.4C25.289 17.96 25.3157 17.5933 25.2623 17.3C25.2223 16.9933 25.109 16.7267 24.9223 16.5C24.469 16.4733 23.909 16.4733 23.2423 16.5C22.5757 16.5267 21.889 16.5667 21.1823 16.62C20.4757 16.66 19.789 16.7133 19.1223 16.78C18.469 16.8333 17.9223 16.8867 17.4823 16.94C17.4957 16.6467 17.5157 16.32 17.5423 15.96C17.5823 15.5867 17.629 15.22 17.6823 14.86C17.7357 14.4867 17.7957 14.1333 17.8623 13.8C17.9423 13.4667 18.029 13.1867 18.1223 12.96C18.5357 12.84 19.049 12.7267 19.6623 12.62C20.2757 12.5133 20.929 12.42 21.6223 12.34C22.329 12.26 23.049 12.1933 23.7823 12.14C24.529 12.0733 25.2423 12.04 25.9223 12.04C26.6157 12.0267 27.249 12.0333 27.8223 12.06C28.409 12.0867 28.889 12.14 29.2623 12.22C29.609 12.82 29.8823 13.4467 30.0823 14.1C30.2957 14.74 30.4557 15.4067 30.5623 16.1C30.669 16.7933 30.7357 17.5067 30.7623 18.24C30.789 18.96 30.8023 19.7 30.8023 20.46Z" fill="white"/>
<path d="M30.8023 20.46L31.4978 21.1786L31.8023 20.8838V20.46H30.8023ZM29.3423 21.7L29.9455 22.4977L29.9484 22.4954L29.3423 21.7ZM27.5623 22.96L28.1049 23.8L28.111 23.7961L28.117 23.7921L27.5623 22.96ZM25.5423 24.22L25.0255 23.3639L25.0182 23.3683L25.5423 24.22ZM23.4223 25.48L22.9245 24.6127L22.8713 24.6432L22.8223 24.68L23.4223 25.48ZM23.3023 25.7L22.3322 25.4575L22.3176 25.516L22.3101 25.576L23.3023 25.7ZM23.3023 26.06L22.3073 26.1595L22.3122 26.2082L22.3218 26.2561L23.3023 26.06ZM23.4023 26.42L22.466 26.7711L22.4942 26.8464L22.5341 26.9161L23.4023 26.42ZM23.5623 26.62L22.9623 27.42L23.0682 27.4994L23.191 27.5485L23.5623 26.62ZM24.2423 26.78L24.0779 27.7664L24.0844 27.7674L24.2423 26.78ZM25.3823 26.9L25.32 27.8981L25.336 27.8991L25.3521 27.8995L25.3823 26.9ZM26.8023 26.96L26.7498 27.9586L26.7629 27.9593L26.776 27.9597L26.8023 26.96ZM30.7223 26.94L31.7201 26.8735L31.6579 25.94H30.7223V26.94ZM30.7223 27.74L29.7231 27.7L29.7223 27.72V27.74H30.7223ZM30.6623 28.78L31.6562 28.8904L31.6567 28.8865L30.6623 28.78ZM30.5023 29.86L31.4844 30.0489L31.4856 30.0421L30.5023 29.86ZM30.2423 30.74L30.3277 31.7363L30.9163 31.6859L31.1562 31.1461L30.2423 30.74ZM27.1223 31L27.1928 31.9976L27.2035 31.9967L27.1223 31ZM23.6623 31.18L23.6283 30.1806L23.6279 30.1806L23.6623 31.18ZM20.2823 31.16L20.3311 30.1611L20.3189 30.1607L20.2823 31.16ZM17.3823 30.78L16.3896 30.9003L16.4721 31.5806L17.1362 31.7492L17.3823 30.78ZM17.2223 29.16L18.2189 29.077L17.2223 29.16ZM17.1223 27.16L16.1225 27.1789L16.1225 27.1792L17.1223 27.16ZM17.1623 25.06L18.1607 25.1176L18.1607 25.1165L17.1623 25.06ZM17.4223 23.14L16.872 22.305L16.5388 22.5247L16.4483 22.9135L17.4223 23.14ZM19.4423 21.84L18.9084 20.9945L18.9084 20.9945L19.4423 21.84ZM21.7023 20.46L22.2101 21.3216L22.2213 21.3148L21.7023 20.46ZM23.7623 19.22L24.2741 20.0791L24.2808 20.0751L24.2875 20.071L23.7623 19.22ZM25.1823 18.4L25.6296 19.2944L26.0448 19.0868L26.1542 18.6356L25.1823 18.4ZM25.2623 17.3L24.2707 17.4293L24.274 17.4542L24.2785 17.4789L25.2623 17.3ZM24.9223 16.5L25.6943 15.8643L25.4168 15.5274L24.9811 15.5017L24.9223 16.5ZM23.2423 16.5L23.2823 17.4992H23.2823L23.2423 16.5ZM21.1823 16.62L21.2389 17.6184L21.2482 17.6179L21.2576 17.6172L21.1823 16.62ZM19.1223 16.78L19.2037 17.7767L19.2128 17.7759L19.2218 17.775L19.1223 16.78ZM17.4823 16.94L16.4834 16.8946L16.4297 18.0749L17.6027 17.9327L17.4823 16.94ZM17.5423 15.96L16.548 15.8535L16.5463 15.8698L16.5451 15.8861L17.5423 15.96ZM17.6823 14.86L18.6716 15.0065L18.6723 15.0014L17.6823 14.86ZM17.8623 13.8L16.89 13.5666L16.8855 13.5852L16.8818 13.6039L17.8623 13.8ZM18.1223 12.96L17.8435 11.9997L17.381 12.1339L17.1977 12.5792L18.1223 12.96ZM19.6623 12.62L19.8337 13.6052L19.8337 13.6052L19.6623 12.62ZM21.6223 12.34L21.5099 11.3463L21.5077 11.3466L21.6223 12.34ZM23.7823 12.14L23.8549 13.1374L23.8631 13.1368L23.8713 13.136L23.7823 12.14ZM25.9223 12.04V13.04H25.932L25.9416 13.0398L25.9223 12.04ZM27.8223 12.06L27.7759 13.0589L27.7769 13.059L27.8223 12.06ZM29.2623 12.22L30.1282 11.7197L29.9061 11.3352L29.4719 11.2422L29.2623 12.22ZM30.0823 14.1L29.1261 14.3927L29.1298 14.4045L29.1337 14.4162L30.0823 14.1ZM30.5623 16.1L29.574 16.2521V16.2521L30.5623 16.1ZM30.7623 18.24L29.763 18.2763L29.763 18.277L30.7623 18.24ZM30.1069 19.7414C29.7273 20.1088 29.2717 20.4967 28.7363 20.9046L29.9484 22.4954C30.533 22.05 31.0508 21.6112 31.4978 21.1786L30.1069 19.7414ZM28.7392 20.9023C28.2101 21.3024 27.6331 21.711 27.0076 22.1279L28.117 23.7921C28.7716 23.3557 29.3812 22.9243 29.9455 22.4977L28.7392 20.9023ZM27.0198 22.12C26.389 22.5274 25.7242 22.9421 25.0255 23.3639L26.0592 25.0761C26.7738 24.6446 27.4557 24.2193 28.1049 23.8L27.0198 22.12ZM25.0182 23.3683C24.3337 23.7896 23.6358 24.2044 22.9245 24.6127L23.9202 26.3473C24.6489 25.929 25.3643 25.5038 26.0664 25.0717L25.0182 23.3683ZM22.8223 24.68C22.4992 24.9224 22.3812 25.2615 22.3322 25.4575L24.2725 25.9425C24.2713 25.9473 24.2614 25.9868 24.2302 26.0439C24.1985 26.102 24.1354 26.1952 24.0223 26.28L22.8223 24.68ZM22.3101 25.576C22.2855 25.7723 22.2883 25.9692 22.3073 26.1595L24.2974 25.9605C24.2897 25.8842 24.2925 25.841 24.2946 25.824L22.3101 25.576ZM22.3218 26.2561C22.357 26.4325 22.4039 26.6055 22.466 26.7711L24.3387 26.0689C24.3208 26.0211 24.301 25.9542 24.2829 25.8639L22.3218 26.2561ZM22.5341 26.9161C22.6186 27.064 22.7532 27.2631 22.9623 27.42L24.1623 25.82C24.2189 25.8624 24.2511 25.9002 24.2632 25.9153C24.276 25.9313 24.2778 25.9365 24.2706 25.9239L22.5341 26.9161ZM23.191 27.5485C23.4329 27.6453 23.7529 27.7122 24.0779 27.7664L24.4067 25.7936C24.2607 25.7693 24.1469 25.7467 24.0614 25.7266C24.019 25.7166 23.987 25.708 23.9639 25.7012C23.9401 25.6941 23.9313 25.6906 23.9337 25.6915L23.191 27.5485ZM24.0844 27.7674C24.4564 27.827 24.8693 27.8699 25.32 27.8981L25.4447 25.9019C25.0421 25.8768 24.695 25.8397 24.4003 25.7926L24.0844 27.7674ZM25.3521 27.8995C25.7836 27.9126 26.2494 27.9323 26.7498 27.9586L26.8549 25.9614C26.3419 25.9344 25.8611 25.914 25.4126 25.9005L25.3521 27.8995ZM26.776 27.9597C27.291 27.9732 27.7931 27.98 28.2823 27.98V25.98C27.8116 25.98 27.327 25.9735 26.8287 25.9603L26.776 27.9597ZM28.2823 27.98C28.7845 27.98 29.2551 27.9732 29.6936 27.9595L29.6311 25.9605C29.2163 25.9735 28.7668 25.98 28.2823 25.98V27.98ZM29.6936 27.9595C30.1146 27.9464 30.4566 27.94 30.7223 27.94V25.94C30.4281 25.94 30.0634 25.947 29.6311 25.9605L29.6936 27.9595ZM29.7246 27.0065C29.7345 27.1556 29.7359 27.3822 29.7231 27.7L31.7215 27.78C31.7355 27.4311 31.7369 27.1244 31.7201 26.8735L29.7246 27.0065ZM29.7223 27.74C29.7223 28.019 29.7049 28.3296 29.668 28.6735L31.6567 28.8865C31.6998 28.4837 31.7223 28.101 31.7223 27.74H29.7223ZM29.6685 28.6696C29.6312 29.0053 29.5814 29.3414 29.5191 29.6779L31.4856 30.0421C31.5566 29.6586 31.6135 29.2747 31.6562 28.8904L29.6685 28.6696ZM29.5203 29.6712C29.4635 29.9668 29.3958 30.1826 29.3285 30.3339L31.1562 31.1461C31.3023 30.8174 31.4079 30.4465 31.4844 30.0488L29.5203 29.6712ZM30.1569 29.7437C29.2253 29.8235 28.1868 29.9101 27.0412 30.0033L27.2035 31.9967C28.3513 31.9033 29.3927 31.8165 30.3277 31.7363L30.1569 29.7437ZM27.0519 30.0025C25.9311 30.0816 24.7899 30.141 23.6283 30.1806L23.6964 32.1794C24.8815 32.139 26.0469 32.0784 27.1928 31.9975L27.0519 30.0025ZM23.6279 30.1806C22.494 30.2197 21.3951 30.2131 20.3311 30.1612L20.2336 32.1588C21.3563 32.2136 22.5107 32.2203 23.6968 32.1794L23.6279 30.1806ZM20.3189 30.1607C19.2788 30.1226 18.3848 30.0028 17.6285 29.8108L17.1362 31.7492C18.0599 31.9838 19.0992 32.1174 20.2458 32.1593L20.3189 30.1607ZM18.3751 30.6597C18.3237 30.2362 18.2716 29.7095 18.2189 29.077L16.2258 29.243C16.2798 29.8905 16.3343 30.4438 16.3896 30.9003L18.3751 30.6597ZM18.2189 29.077C18.1675 28.4598 18.1351 27.8145 18.1222 27.1408L16.1225 27.1792C16.1362 27.8922 16.1706 28.5802 16.2258 29.243L18.2189 29.077ZM18.1222 27.1411C18.1093 26.4595 18.1222 25.785 18.1607 25.1176L16.164 25.0024C16.1225 25.7216 16.1087 26.4472 16.1225 27.1789L18.1222 27.1411ZM18.1607 25.1165C18.1981 24.456 18.2783 23.8741 18.3964 23.3665L16.4483 22.9135C16.2997 23.5525 16.2066 24.2506 16.1639 25.0035L18.1607 25.1165ZM17.9727 23.975C18.5527 23.5927 19.2204 23.1629 19.9763 22.6855L18.9084 20.9945C18.1443 21.4771 17.4653 21.914 16.872 22.305L17.9727 23.975ZM19.9763 22.6855C20.728 22.2108 21.4725 21.7561 22.21 21.3215L21.1947 19.5985C20.4388 20.0439 19.6767 20.5092 18.9084 20.9945L19.9763 22.6855ZM22.2213 21.3148C22.9661 20.8626 23.6503 20.4508 24.2741 20.0791L23.2505 18.3609C22.6211 18.7359 21.932 19.1507 21.1834 19.6052L22.2213 21.3148ZM24.2875 20.071C24.9094 19.6873 25.3514 19.4335 25.6296 19.2944L24.7351 17.5056C24.3733 17.6865 23.8686 17.9794 23.2372 18.369L24.2875 20.071ZM26.1542 18.6356C26.2783 18.1235 26.3341 17.6044 26.2462 17.1211L24.2785 17.4789C24.2973 17.5823 24.2997 17.7965 24.2105 18.1644L26.1542 18.6356ZM26.2539 17.1707C26.191 16.6883 26.0067 16.2437 25.6943 15.8643L24.1504 17.1357C24.2113 17.2097 24.2537 17.2984 24.2707 17.4293L26.2539 17.1707ZM24.9811 15.5017C24.4835 15.4725 23.8882 15.4734 23.2024 15.5008L23.2823 17.4992C23.9298 17.4733 24.4545 17.4742 24.8636 17.4983L24.9811 15.5017ZM23.2024 15.5008C22.5232 15.528 21.8248 15.5687 21.1071 15.6228L21.2576 17.6172C21.9532 17.5647 22.6281 17.5254 23.2823 17.4992L23.2024 15.5008ZM21.1258 15.6216C20.4056 15.6624 19.7046 15.7168 19.0228 15.785L19.2218 17.775C19.8734 17.7099 20.5457 17.6576 21.2389 17.6184L21.1258 15.6216ZM19.041 15.7833C18.3802 15.8373 17.8195 15.8918 17.362 15.9473L17.6027 17.9327C18.0252 17.8815 18.5579 17.8294 19.2037 17.7767L19.041 15.7833ZM18.4813 16.9854C18.4941 16.7034 18.5135 16.3864 18.5396 16.0339L16.5451 15.8861C16.5179 16.2536 16.4972 16.5899 16.4834 16.8946L18.4813 16.9854ZM18.5367 16.0665C18.5753 15.7061 18.6202 15.3528 18.6715 15.0065L16.6931 14.7135C16.6378 15.0872 16.5894 15.4672 16.548 15.8535L18.5367 16.0665ZM18.6723 15.0014C18.7233 14.6445 18.7803 14.3095 18.8429 13.9961L16.8818 13.6039C16.8111 13.9572 16.7481 14.3289 16.6924 14.7186L18.6723 15.0014ZM18.8347 14.0334C18.907 13.7321 18.9794 13.505 19.047 13.3407L17.1977 12.5792C17.0786 12.8684 16.9777 13.2012 16.89 13.5666L18.8347 14.0334ZM18.4012 13.9203C18.7674 13.814 19.2421 13.7081 19.8337 13.6052L19.491 11.6348C18.8559 11.7452 18.304 11.866 17.8435 11.9997L18.4012 13.9203ZM19.8337 13.6052C20.4261 13.5022 21.0604 13.4115 21.737 13.3334L21.5077 11.3466C20.7976 11.4285 20.1252 11.5245 19.491 11.6348L19.8337 13.6052ZM21.7348 13.3337C22.4278 13.2552 23.1344 13.1898 23.8549 13.1374L23.7098 11.1426C22.9636 11.1969 22.2303 11.2648 21.5099 11.3463L21.7348 13.3337ZM23.8713 13.136C24.5913 13.0717 25.2749 13.04 25.9223 13.04V11.04C25.2098 11.04 24.4667 11.0749 23.6934 11.144L23.8713 13.136ZM25.9416 13.0398C26.6173 13.0268 27.2284 13.0335 27.7759 13.0589L27.8688 11.0611C27.2697 11.0332 26.614 11.0265 25.9031 11.0402L25.9416 13.0398ZM27.7769 13.059C28.3344 13.0843 28.7541 13.1338 29.0528 13.1978L29.4719 11.2422C29.0239 11.1462 28.4836 11.089 27.8678 11.061L27.7769 13.059ZM28.3965 12.7203C28.7058 13.2557 28.9486 13.8128 29.1261 14.3927L31.0385 13.8073C30.8161 13.0805 30.5122 12.3843 30.1282 11.7197L28.3965 12.7203ZM29.1337 14.4162C29.3285 15.0006 29.4755 15.6123 29.574 16.2521L31.5507 15.9479C31.4358 15.2011 31.2629 14.4794 31.031 13.7838L29.1337 14.4162ZM29.574 16.2521C29.6745 16.9054 29.7377 17.58 29.763 18.2763L31.7617 18.2037C31.7337 17.4333 31.6635 16.6813 31.5507 15.9479L29.574 16.2521ZM29.763 18.277C29.7892 18.984 29.8023 19.7117 29.8023 20.46H31.8023C31.8023 19.6883 31.7888 18.936 31.7617 18.203L29.763 18.277Z" fill="black" mask="url(#path-6-outside-2_985_477)"/>
</g>
</g>
<defs>
<filter id="filter0_di_985_477" x="0.608116" y="0.536039" width="46.7838" height="47.7838" filterUnits="userSpaceOnUse" color-interpolation-filters="sRGB">
<feFlood flood-opacity="0" result="BackgroundImageFix"/>
<feColorMatrix in="SourceAlpha" type="matrix" values="0 0 0 0 0 0 0 0 0 0 0 0 0 0 0 0 0 0 127 0" result="hardAlpha"/>
<feMorphology radius="0.927923" operator="dilate" in="SourceAlpha" result="effect1_dropShadow_985_477"/>
<feOffset dy="0.927923"/>
<feGaussianBlur stdDeviation="0.231981"/>
<feComposite in2="hardAlpha" operator="out"/>
<feColorMatrix type="matrix" values="0 0 0 0 0 0 0 0 0 0 0 0 0 0 0 0 0 0 0.25 0"/>
<feBlend mode="normal" in2="BackgroundImageFix" result="effect1_dropShadow_985_477"/>
<feBlend mode="normal" in="SourceGraphic" in2="effect1_dropShadow_985_477" result="shape"/>
<feColorMatrix in="SourceAlpha" type="matrix" values="0 0 0 0 0 0 0 0 0 0 0 0 0 0 0 0 0 0 127 0" result="hardAlpha"/>
<feOffset dy="2.5"/>
<feGaussianBlur stdDeviation="0.25"/>
<feComposite in2="hardAlpha" operator="arithmetic" k2="-1" k3="1"/>
<feColorMatrix type="matrix" values="0 0 0 0 1 0 0 0 0 1 0 0 0 0 1 0 0 0 0.7 0"/>
<feBlend mode="normal" in2="shape" result="effect2_innerShadow_985_477"/>
</filter>
<filter id="filter1_d_985_477" x="17.1025" y="12.02" width="13.6997" height="21.22" filterUnits="userSpaceOnUse" color-interpolation-filters="sRGB">
<feFlood flood-opacity="0" result="BackgroundImageFix"/>
<feColorMatrix in="SourceAlpha" type="matrix" values="0 0 0 0 0 0 0 0 0 0 0 0 0 0 0 0 0 0 127 0" result="hardAlpha"/>
<feOffset dy="2"/>
<feComposite in2="hardAlpha" operator="out"/>
<feColorMatrix type="matrix" values="0 0 0 0 0 0 0 0 0 0 0 0 0 0 0 0 0 0 1 0"/>
<feBlend mode="normal" in2="BackgroundImageFix" result="effect1_dropShadow_985_477"/>
<feBlend mode="normal" in="SourceGraphic" in2="effect1_dropShadow_985_477" result="shape"/>
</filter>
<linearGradient id="paint0_linear_985_477" x1="24" y1="1" x2="24" y2="46" gradientUnits="userSpaceOnUse">
<stop stop-color="#BAD68C"/>
<stop offset="1" stop-color="#89BF61"/>
</linearGradient>
<linearGradient id="paint1_linear_985_477" x1="24" y1="7" x2="24" y2="36.5" gradientUnits="userSpaceOnUse">
<stop stop-color="white"/>
<stop offset="1" stop-color="white" stop-opacity="0"/>
</linearGradient>
<linearGradient id="paint2_linear_985_477" x1="24" y1="14.3735" x2="24" y2="45" gradientUnits="userSpaceOnUse">
<stop stop-color="#2C5C1C" stop-opacity="0"/>
<stop offset="1" stop-color="#285C18" stop-opacity="0.64"/>
</linearGradient>
</defs>
</svg>
