<svg width="132" height="46" viewBox="0 0 132 46" fill="none" xmlns="http://www.w3.org/2000/svg">
<g filter="url(#filter0_di_909_1549)">
<mask id="path-1-inside-1_909_1549" fill="white">
<path d="M2 11C2 5.47715 6.47715 1 12 1H120C125.523 1 130 5.47715 130 11V33C130 38.5228 125.523 43 120 43H12C6.47715 43 2 38.5228 2 33V11Z"/>
</mask>
<path d="M2 11C2 5.47715 6.47715 1 12 1H120C125.523 1 130 5.47715 130 11V33C130 38.5228 125.523 43 120 43H12C6.47715 43 2 38.5228 2 33V11Z" fill="url(#paint0_linear_909_1549)"/>
<path d="M0.8 11C0.8 4.92487 5.72487 0 11.8 0H120.2C126.275 0 131.2 4.92487 131.2 11H128.8C128.8 6.02944 124.86 2 120 2H12C7.13989 2 3.2 6.02944 3.2 11H0.8ZM131.2 33.2C131.2 39.3856 126.186 44.4 120 44.4H12C5.81441 44.4 0.8 39.3856 0.8 33.2L3.2 33C3.2 37.7496 7.13989 41.6 12 41.6H120C124.86 41.6 128.8 37.7496 128.8 33L131.2 33.2ZM12 44.4C5.81441 44.4 0.8 39.3856 0.8 33.2V11C0.8 4.92487 5.72487 0 11.8 0L12 2C7.13989 2 3.2 6.02944 3.2 11V33C3.2 37.7496 7.13989 41.6 12 41.6V44.4ZM120.2 0C126.275 0 131.2 4.92487 131.2 11V33.2C131.2 39.3856 126.186 44.4 120 44.4V41.6C124.86 41.6 128.8 37.7496 128.8 33V11C128.8 6.02944 124.86 2 120 2L120.2 0Z" fill="black" mask="url(#path-1-inside-1_909_1549)"/>
<path d="M9 12C9 9.23858 11.2386 7 14 7H118C120.761 7 123 9.23858 123 12V20C123 23.866 119.866 27 116 27H16C12.134 27 9 23.866 9 20V12Z" fill="url(#paint1_linear_909_1549)" fill-opacity="0.53"/>
<rect x="3.75" y="4.75" width="124.5" height="36.5" rx="9.25" stroke="url(#paint2_linear_909_1549)" stroke-opacity="0.8" stroke-width="1.5"/>
<g filter="url(#filter1_d_909_1549)">
<mask id="path-6-outside-2_909_1549" maskUnits="userSpaceOnUse" x="28" y="13" width="77" height="20" fill="black">
<rect fill="white" x="28" y="13" width="77" height="20"/>
<path d="M39.1636 14.952C39.4249 14.952 40.0409 15.022 41.0116 15.162V18.06H40.0316C39.9102 18.06 39.7982 18.0973 39.6956 18.172C39.6022 18.2467 39.5322 18.3353 39.4856 18.438V18.424L37.8756 21.476C38.1556 21.9893 38.4496 22.5213 38.7576 23.072C39.0656 23.6227 39.3736 24.178 39.6816 24.738C39.9896 25.298 40.2929 25.8533 40.5916 26.404C40.8902 26.9547 41.1796 27.4867 41.4596 28H37.4976L34.7676 22.988H33.6056V28H29.9096V15.134H33.6056V19.978H34.7676L36.4476 16.786C36.7462 16.226 37.1009 15.7827 37.5116 15.456C37.9316 15.12 38.4822 14.952 39.1636 14.952ZM47.2916 31.556C46.9462 31.556 46.5496 31.542 46.1016 31.514C45.6536 31.4953 45.1542 31.4487 44.6036 31.374V28.476H46.5076C46.8342 28.476 47.0676 28.42 47.2076 28.308C47.3569 28.2053 47.4316 28.0467 47.4316 27.832C47.4316 27.7293 47.4176 27.6173 47.3896 27.496C47.3709 27.3747 47.3289 27.244 47.2636 27.104L43.1196 17.22H47.1236L49.4896 23.604C49.6389 23.1093 49.7976 22.5913 49.9656 22.05C50.1336 21.5087 50.3016 20.9673 50.4696 20.426C50.6376 19.8753 50.8056 19.3293 50.9736 18.788C51.1416 18.2467 51.3049 17.724 51.4636 17.22H55.4396L51.4076 28.294V28.28C51.0249 29.3067 50.5069 30.1093 49.8536 30.688C49.2096 31.2667 48.3556 31.556 47.2916 31.556ZM67.4153 17.22V28H63.6633V20.174H60.4153V28H56.6353V17.22H67.4153ZM76.0643 17.22H79.9283V28H76.1763V22.624L73.0263 28H69.1483V17.22H72.9283V22.596L76.0643 17.22ZM88.2833 20.174V28H84.5173V20.174H81.2693V17.22H91.5313V20.174H88.2833ZM92.8892 28V17.22H96.6692V20.482H100.547C101.023 20.482 101.448 20.552 101.821 20.692C102.204 20.8227 102.535 21.0373 102.815 21.336C103.114 21.6347 103.329 21.9707 103.459 22.344C103.599 22.7173 103.669 23.1327 103.669 23.59V24.878C103.669 25.3447 103.595 25.774 103.445 26.166C103.296 26.5487 103.081 26.8753 102.801 27.146C102.531 27.4167 102.204 27.6267 101.821 27.776C101.439 27.9253 101.014 28 100.547 28H92.8892ZM99.3712 25.228C99.5299 25.228 99.6606 25.1767 99.7632 25.074C99.8659 24.9713 99.9172 24.836 99.9172 24.668V23.786C99.9172 23.6367 99.8659 23.5153 99.7632 23.422C99.6606 23.3287 99.5299 23.282 99.3712 23.282H96.6692V25.228H99.3712Z"/>
</mask>
<path d="M39.1636 14.952C39.4249 14.952 40.0409 15.022 41.0116 15.162V18.06H40.0316C39.9102 18.06 39.7982 18.0973 39.6956 18.172C39.6022 18.2467 39.5322 18.3353 39.4856 18.438V18.424L37.8756 21.476C38.1556 21.9893 38.4496 22.5213 38.7576 23.072C39.0656 23.6227 39.3736 24.178 39.6816 24.738C39.9896 25.298 40.2929 25.8533 40.5916 26.404C40.8902 26.9547 41.1796 27.4867 41.4596 28H37.4976L34.7676 22.988H33.6056V28H29.9096V15.134H33.6056V19.978H34.7676L36.4476 16.786C36.7462 16.226 37.1009 15.7827 37.5116 15.456C37.9316 15.12 38.4822 14.952 39.1636 14.952ZM47.2916 31.556C46.9462 31.556 46.5496 31.542 46.1016 31.514C45.6536 31.4953 45.1542 31.4487 44.6036 31.374V28.476H46.5076C46.8342 28.476 47.0676 28.42 47.2076 28.308C47.3569 28.2053 47.4316 28.0467 47.4316 27.832C47.4316 27.7293 47.4176 27.6173 47.3896 27.496C47.3709 27.3747 47.3289 27.244 47.2636 27.104L43.1196 17.22H47.1236L49.4896 23.604C49.6389 23.1093 49.7976 22.5913 49.9656 22.05C50.1336 21.5087 50.3016 20.9673 50.4696 20.426C50.6376 19.8753 50.8056 19.3293 50.9736 18.788C51.1416 18.2467 51.3049 17.724 51.4636 17.22H55.4396L51.4076 28.294V28.28C51.0249 29.3067 50.5069 30.1093 49.8536 30.688C49.2096 31.2667 48.3556 31.556 47.2916 31.556ZM67.4153 17.22V28H63.6633V20.174H60.4153V28H56.6353V17.22H67.4153ZM76.0643 17.22H79.9283V28H76.1763V22.624L73.0263 28H69.1483V17.22H72.9283V22.596L76.0643 17.22ZM88.2833 20.174V28H84.5173V20.174H81.2693V17.22H91.5313V20.174H88.2833ZM92.8892 28V17.22H96.6692V20.482H100.547C101.023 20.482 101.448 20.552 101.821 20.692C102.204 20.8227 102.535 21.0373 102.815 21.336C103.114 21.6347 103.329 21.9707 103.459 22.344C103.599 22.7173 103.669 23.1327 103.669 23.59V24.878C103.669 25.3447 103.595 25.774 103.445 26.166C103.296 26.5487 103.081 26.8753 102.801 27.146C102.531 27.4167 102.204 27.6267 101.821 27.776C101.439 27.9253 101.014 28 100.547 28H92.8892ZM99.3712 25.228C99.5299 25.228 99.6606 25.1767 99.7632 25.074C99.8659 24.9713 99.9172 24.836 99.9172 24.668V23.786C99.9172 23.6367 99.8659 23.5153 99.7632 23.422C99.6606 23.3287 99.5299 23.282 99.3712 23.282H96.6692V25.228H99.3712Z" fill="white"/>
<path d="M41.0116 15.162H42.0116V14.2959L41.1543 14.1722L41.0116 15.162ZM41.0116 18.06V19.06H42.0116V18.06H41.0116ZM39.6956 18.172L39.1074 17.3633L39.0888 17.3768L39.0709 17.3911L39.6956 18.172ZM39.4856 18.438H38.4856L40.3959 18.8518L39.4856 18.438ZM39.4856 18.424H40.4856L38.6011 17.9574L39.4856 18.424ZM37.8756 21.476L36.9911 21.0094L36.7408 21.4839L36.9977 21.9549L37.8756 21.476ZM38.7576 23.072L39.6303 22.5838V22.5838L38.7576 23.072ZM39.6816 24.738L38.8054 25.2199L39.6816 24.738ZM40.5916 26.404L41.4706 25.9272L40.5916 26.404ZM41.4596 28V29H43.1441L42.3375 27.5211L41.4596 28ZM37.4976 28L36.6194 28.4783L36.9035 29H37.4976V28ZM34.7676 22.988L35.6458 22.5097L35.3616 21.988H34.7676V22.988ZM33.6056 22.988V21.988H32.6056V22.988H33.6056ZM33.6056 28V29H34.6056V28H33.6056ZM29.9096 28H28.9096V29H29.9096V28ZM29.9096 15.134V14.134H28.9096V15.134H29.9096ZM33.6056 15.134H34.6056V14.134H33.6056V15.134ZM33.6056 19.978H32.6056V20.978H33.6056V19.978ZM34.7676 19.978V20.978H35.3713L35.6525 20.4437L34.7676 19.978ZM36.4476 16.786L35.5652 16.3154L35.5627 16.3203L36.4476 16.786ZM37.5116 15.456L38.1341 16.2386L38.1363 16.2369L37.5116 15.456ZM39.1636 15.952C39.3377 15.952 39.8746 16.0084 40.8688 16.1518L41.1543 14.1722C40.2072 14.0356 39.5121 13.952 39.1636 13.952V15.952ZM40.0116 15.162V18.06H42.0116V15.162H40.0116ZM41.0116 17.06H40.0316V19.06H41.0116V17.06ZM40.0316 17.06C39.6887 17.06 39.3726 17.1704 39.1074 17.3633L40.2838 18.9807C40.2584 18.9992 40.2212 19.0206 40.1728 19.0367C40.124 19.0529 40.0754 19.06 40.0316 19.06V17.06ZM39.0709 17.3911C38.8623 17.558 38.6908 17.7699 38.5752 18.0242L40.3959 18.8518C40.3858 18.874 40.3729 18.8953 40.358 18.9141C40.3432 18.9328 40.3295 18.9455 40.3203 18.9529L39.0709 17.3911ZM40.4856 18.438V18.424H38.4856V18.438H40.4856ZM38.6011 17.9574L36.9911 21.0094L38.7601 21.9426L40.3701 18.8906L38.6011 17.9574ZM36.9977 21.9549C37.2795 22.4715 37.5752 23.0066 37.8848 23.5602L39.6303 22.5838C39.3239 22.036 39.0317 21.5071 38.7535 20.9971L36.9977 21.9549ZM37.8848 23.5602C38.1916 24.1087 38.4985 24.662 38.8054 25.2199L40.5578 24.2561C40.2487 23.694 39.9395 23.1366 39.6303 22.5838L37.8848 23.5602ZM38.8054 25.2199C39.1124 25.7782 39.4148 26.3319 39.7125 26.8808L41.4706 25.9272C41.171 25.3748 40.8667 24.8178 40.5578 24.2561L38.8054 25.2199ZM39.7125 26.8808C40.0116 27.4321 40.3013 27.9648 40.5817 28.4789L42.3375 27.5211C42.0579 27.0086 41.7689 26.4773 41.4706 25.9272L39.7125 26.8808ZM41.4596 27H37.4976V29H41.4596V27ZM38.3758 27.5217L35.6458 22.5097L33.8894 23.4663L36.6194 28.4783L38.3758 27.5217ZM34.7676 21.988H33.6056V23.988H34.7676V21.988ZM32.6056 22.988V28H34.6056V22.988H32.6056ZM33.6056 27H29.9096V29H33.6056V27ZM30.9096 28V15.134H28.9096V28H30.9096ZM29.9096 16.134H33.6056V14.134H29.9096V16.134ZM32.6056 15.134V19.978H34.6056V15.134H32.6056ZM33.6056 20.978H34.7676V18.978H33.6056V20.978ZM35.6525 20.4437L37.3325 17.2517L35.5627 16.3203L33.8827 19.5123L35.6525 20.4437ZM37.3299 17.2566C37.5774 16.7925 37.8504 16.4643 38.1341 16.2386L36.8891 14.6734C36.3514 15.1011 35.9151 15.6595 35.5652 16.3154L37.3299 17.2566ZM38.1363 16.2369C38.3361 16.077 38.6476 15.952 39.1636 15.952V13.952C38.3169 13.952 37.527 14.163 36.8869 14.6751L38.1363 16.2369ZM46.1016 31.514L46.1639 30.5159L46.1536 30.5153L46.1432 30.5149L46.1016 31.514ZM44.6036 31.374H43.6036V32.2476L44.4692 32.3649L44.6036 31.374ZM44.6036 28.476V27.476H43.6036V28.476H44.6036ZM47.2076 28.308L46.641 27.484L46.6112 27.5045L46.5829 27.5271L47.2076 28.308ZM47.3896 27.496L46.4012 27.6481L46.4068 27.6847L46.4152 27.7209L47.3896 27.496ZM47.2636 27.104L46.3413 27.4907L46.349 27.5089L46.3574 27.5269L47.2636 27.104ZM43.1196 17.22V16.22H41.616L42.1973 17.6067L43.1196 17.22ZM47.1236 17.22L48.0612 16.8725L47.8194 16.22H47.1236V17.22ZM49.4896 23.604L48.5519 23.9515L49.5865 26.7431L50.4469 23.893L49.4896 23.604ZM50.4696 20.426L51.4246 20.7224L51.426 20.7178L50.4696 20.426ZM50.9736 18.788L50.0185 18.4916V18.4916L50.9736 18.788ZM51.4636 17.22V16.22H50.73L50.5097 16.9197L51.4636 17.22ZM55.4396 17.22L56.3792 17.5621L56.8679 16.22H55.4396V17.22ZM51.4076 28.294H50.4076L52.3472 28.6361L51.4076 28.294ZM51.4076 28.28H52.4076L50.4705 27.9307L51.4076 28.28ZM49.8536 30.688L49.1905 29.9394L49.1852 29.9442L49.8536 30.688ZM47.2916 30.556C46.9721 30.556 46.5969 30.543 46.1639 30.5159L46.0392 32.5121C46.5022 32.541 46.9203 32.556 47.2916 32.556V30.556ZM46.1432 30.5149C45.7325 30.4978 45.2648 30.4545 44.7379 30.3831L44.4692 32.3649C45.0437 32.4428 45.5746 32.4929 46.0599 32.5131L46.1432 30.5149ZM45.6036 31.374V28.476H43.6036V31.374H45.6036ZM44.6036 29.476H46.5076V27.476H44.6036V29.476ZM46.5076 29.476C46.8968 29.476 47.4191 29.4194 47.8323 29.0889L46.5829 27.5271C46.622 27.4958 46.6553 27.4783 46.6747 27.4696C46.6937 27.461 46.7019 27.4598 46.6942 27.4616C46.6867 27.4634 46.668 27.4672 46.6356 27.4705C46.6034 27.4737 46.5611 27.476 46.5076 27.476V29.476ZM47.7741 29.132C48.2476 28.8065 48.4316 28.3063 48.4316 27.832H46.4316C46.4316 27.8244 46.433 27.7665 46.4707 27.6862C46.5115 27.5996 46.5747 27.5295 46.641 27.484L47.7741 29.132ZM48.4316 27.832C48.4316 27.6397 48.4055 27.4512 48.364 27.2711L46.4152 27.7209C46.4296 27.7835 46.4316 27.819 46.4316 27.832H48.4316ZM48.3779 27.3439C48.3417 27.1084 48.2653 26.8859 48.1697 26.6811L46.3574 27.5269C46.3925 27.6021 46.4001 27.641 46.4012 27.6481L48.3779 27.3439ZM48.1858 26.7173L44.0418 16.8333L42.1973 17.6067L46.3413 27.4907L48.1858 26.7173ZM43.1196 18.22H47.1236V16.22H43.1196V18.22ZM46.1859 17.5675L48.5519 23.9515L50.4272 23.2565L48.0612 16.8725L46.1859 17.5675ZM50.4469 23.893C50.5954 23.401 50.7533 22.8855 50.9206 22.3464L49.0105 21.7536C48.8418 22.2972 48.6824 22.8176 48.5322 23.315L50.4469 23.893ZM50.9206 22.3464C50.9255 22.3309 50.9473 22.2604 50.9521 22.2449C50.957 22.2294 50.9788 22.1589 50.9836 22.1434C50.9885 22.1279 51.0103 22.0574 51.0151 22.0419C51.02 22.0264 51.0418 21.9559 51.0466 21.9404C51.0515 21.9249 51.0733 21.8544 51.0781 21.8389C51.083 21.8234 51.1048 21.7529 51.1096 21.7374C51.1145 21.7219 51.1363 21.6514 51.1411 21.6359C51.146 21.6204 51.1678 21.5499 51.1726 21.5344C51.2421 21.3105 51.3552 20.9463 51.4246 20.7224L49.5145 20.1296C49.5097 20.1451 49.4563 20.3171 49.4515 20.3326C49.4514 20.3328 49.4496 20.3387 49.4495 20.3389C49.4495 20.3391 49.4476 20.3451 49.4476 20.3453C49.4475 20.3455 49.4457 20.3514 49.4456 20.3516C49.4455 20.3518 49.4437 20.3578 49.4436 20.358C49.4436 20.3582 49.4417 20.3641 49.4417 20.3643C49.4416 20.3645 49.4397 20.3705 49.4397 20.3707C49.4396 20.3709 49.4378 20.3768 49.4377 20.377C49.4374 20.3781 49.4371 20.3791 49.4367 20.3802C49.4364 20.3812 49.4361 20.3823 49.4358 20.3834C49.4354 20.3844 49.4351 20.3855 49.4348 20.3865C49.4344 20.3876 49.4341 20.3886 49.4338 20.3897C49.4335 20.3908 49.4331 20.3918 49.4328 20.3929C49.4325 20.3939 49.4321 20.395 49.4318 20.396C49.4315 20.3971 49.4312 20.3982 49.4308 20.3992C49.4305 20.4003 49.4302 20.4013 49.4298 20.4024C49.4295 20.4034 49.4292 20.4045 49.4289 20.4056C49.4285 20.4066 49.4282 20.4077 49.4279 20.4087C49.4275 20.4098 49.4272 20.4108 49.4269 20.4119C49.4266 20.413 49.4262 20.414 49.4259 20.4151C49.4256 20.4161 49.4253 20.4172 49.4249 20.4182C49.4246 20.4193 49.4243 20.4204 49.4239 20.4214C49.4236 20.4225 49.4233 20.4235 49.423 20.4246C49.4226 20.4256 49.4223 20.4267 49.422 20.4278C49.4216 20.4288 49.4213 20.4299 49.421 20.4309C49.4207 20.432 49.4203 20.433 49.42 20.4341C49.4152 20.4496 49.3933 20.5201 49.3885 20.5356C49.3837 20.5511 49.3618 20.6216 49.357 20.6371C49.3522 20.6526 49.3303 20.7231 49.3255 20.7386C49.3207 20.7541 49.2988 20.8246 49.294 20.8401C49.2892 20.8556 49.2673 20.9261 49.2625 20.9416C49.2027 21.1344 49.1963 21.1548 49.1365 21.3476C49.0767 21.5404 49.0703 21.5608 49.0105 21.7536L50.9206 22.3464ZM51.426 20.7178C51.5936 20.1686 51.7611 19.6242 51.9286 19.0844L50.0185 18.4916C49.85 19.0345 49.6815 19.582 49.5131 20.1342L51.426 20.7178ZM51.9286 19.0844C52.0963 18.5443 52.2592 18.0229 52.4174 17.5203L50.5097 16.9197C50.3506 17.4251 50.1869 17.9491 50.0185 18.4916L51.9286 19.0844ZM51.4636 18.22H55.4396V16.22H51.4636V18.22ZM54.4999 16.8779L50.4679 27.9519L52.3472 28.6361L56.3792 17.5621L54.4999 16.8779ZM52.4076 28.294V28.28H50.4076V28.294H52.4076ZM50.4705 27.9307C50.1308 28.8423 49.6938 29.4937 49.1905 29.9394L50.5166 31.4366C51.32 30.725 51.919 29.771 52.3446 28.6293L50.4705 27.9307ZM49.1852 29.9442C48.7644 30.3223 48.1679 30.556 47.2916 30.556V32.556C48.5433 32.556 49.6547 32.211 50.5219 31.4318L49.1852 29.9442ZM67.4153 17.22H68.4153V16.22H67.4153V17.22ZM67.4153 28V29H68.4153V28H67.4153ZM63.6633 28H62.6633V29H63.6633V28ZM63.6633 20.174H64.6633V19.174H63.6633V20.174ZM60.4153 20.174V19.174H59.4153V20.174H60.4153ZM60.4153 28V29H61.4153V28H60.4153ZM56.6353 28H55.6353V29H56.6353V28ZM56.6353 17.22V16.22H55.6353V17.22H56.6353ZM66.4153 17.22V28H68.4153V17.22H66.4153ZM67.4153 27H63.6633V29H67.4153V27ZM64.6633 28V20.174H62.6633V28H64.6633ZM63.6633 19.174H60.4153V21.174H63.6633V19.174ZM59.4153 20.174V28H61.4153V20.174H59.4153ZM60.4153 27H56.6353V29H60.4153V27ZM57.6353 28V17.22H55.6353V28H57.6353ZM56.6353 18.22H67.4153V16.22H56.6353V18.22ZM76.0643 17.22V16.22H75.4899L75.2005 16.7161L76.0643 17.22ZM79.9283 17.22H80.9283V16.22H79.9283V17.22ZM79.9283 28V29H80.9283V28H79.9283ZM76.1763 28H75.1763V29H76.1763V28ZM76.1763 22.624H77.1763V18.9393L75.3135 22.1185L76.1763 22.624ZM73.0263 28V29H73.5994L73.8891 28.5055L73.0263 28ZM69.1483 28H68.1483V29H69.1483V28ZM69.1483 17.22V16.22H68.1483V17.22H69.1483ZM72.9283 17.22H73.9283V16.22H72.9283V17.22ZM72.9283 22.596H71.9283V26.2949L73.7921 23.0999L72.9283 22.596ZM76.0643 18.22H79.9283V16.22H76.0643V18.22ZM78.9283 17.22V28H80.9283V17.22H78.9283ZM79.9283 27H76.1763V29H79.9283V27ZM77.1763 28V22.624H75.1763V28H77.1763ZM75.3135 22.1185L72.1635 27.4945L73.8891 28.5055L77.0391 23.1295L75.3135 22.1185ZM73.0263 27H69.1483V29H73.0263V27ZM70.1483 28V17.22H68.1483V28H70.1483ZM69.1483 18.22H72.9283V16.22H69.1483V18.22ZM71.9283 17.22V22.596H73.9283V17.22H71.9283ZM73.7921 23.0999L76.9281 17.7239L75.2005 16.7161L72.0645 22.0921L73.7921 23.0999ZM88.2833 20.174V19.174H87.2833V20.174H88.2833ZM88.2833 28V29H89.2833V28H88.2833ZM84.5173 28H83.5173V29H84.5173V28ZM84.5173 20.174H85.5173V19.174H84.5173V20.174ZM81.2693 20.174H80.2693V21.174H81.2693V20.174ZM81.2693 17.22V16.22H80.2693V17.22H81.2693ZM91.5313 17.22H92.5313V16.22H91.5313V17.22ZM91.5313 20.174V21.174H92.5313V20.174H91.5313ZM87.2833 20.174V28H89.2833V20.174H87.2833ZM88.2833 27H84.5173V29H88.2833V27ZM85.5173 28V20.174H83.5173V28H85.5173ZM84.5173 19.174H81.2693V21.174H84.5173V19.174ZM82.2693 20.174V17.22H80.2693V20.174H82.2693ZM81.2693 18.22H91.5313V16.22H81.2693V18.22ZM90.5313 17.22V20.174H92.5313V17.22H90.5313ZM91.5313 19.174H88.2833V21.174H91.5313V19.174ZM92.8892 28H91.8892V29H92.8892V28ZM92.8892 17.22V16.22H91.8892V17.22H92.8892ZM96.6692 17.22H97.6692V16.22H96.6692V17.22ZM96.6692 20.482H95.6692V21.482H96.6692V20.482ZM101.821 20.692L101.47 21.6283L101.484 21.6335L101.498 21.6383L101.821 20.692ZM102.815 21.336L102.086 22.0199L102.097 22.0317L102.108 22.0431L102.815 21.336ZM103.459 22.344L102.515 22.6744L102.519 22.6848L102.523 22.6951L103.459 22.344ZM103.445 26.166L104.377 26.5296L104.38 26.522L103.445 26.166ZM102.801 27.146L102.106 26.427L102.1 26.4329L102.094 26.4389L102.801 27.146ZM99.7632 25.074L100.47 25.7811V25.7811L99.7632 25.074ZM99.7632 23.422L100.436 22.6821L100.436 22.6821L99.7632 23.422ZM96.6692 23.282V22.282H95.6692V23.282H96.6692ZM96.6692 25.228H95.6692V26.228H96.6692V25.228ZM93.8892 28V17.22H91.8892V28H93.8892ZM92.8892 18.22H96.6692V16.22H92.8892V18.22ZM95.6692 17.22V20.482H97.6692V17.22H95.6692ZM96.6692 21.482H100.547V19.482H96.6692V21.482ZM100.547 21.482C100.926 21.482 101.228 21.5377 101.47 21.6283L102.172 19.7557C101.667 19.5663 101.12 19.482 100.547 19.482V21.482ZM101.498 21.6383C101.724 21.7154 101.916 21.8391 102.086 22.0199L103.545 20.6521C103.154 20.2355 102.684 19.9299 102.144 19.7456L101.498 21.6383ZM102.108 22.0431C102.308 22.2429 102.438 22.4523 102.515 22.6744L104.403 22.0136C104.219 21.489 103.92 21.0264 103.522 20.6289L102.108 22.0431ZM102.523 22.6951C102.615 22.941 102.669 23.2352 102.669 23.59H104.669C104.669 23.0302 104.583 22.4937 104.396 21.9929L102.523 22.6951ZM102.669 23.59V24.878H104.669V23.59H102.669ZM102.669 24.878C102.669 25.2366 102.612 25.5438 102.511 25.81L104.38 26.522C104.577 26.0042 104.669 25.4527 104.669 24.878H102.669ZM102.514 25.8025C102.414 26.0585 102.277 26.2619 102.106 26.427L103.496 27.865C103.885 27.4888 104.178 27.0388 104.377 26.5295L102.514 25.8025ZM102.094 26.4389C101.928 26.6048 101.721 26.7416 101.458 26.8444L102.185 28.7076C102.687 28.5117 103.133 28.2285 103.508 27.8531L102.094 26.4389ZM101.458 26.8444C101.206 26.9428 100.906 27 100.547 27V29C101.122 29 101.672 28.9079 102.185 28.7076L101.458 26.8444ZM100.547 27H92.8892V29H100.547V27ZM99.3712 26.228C99.768 26.228 100.162 26.0896 100.47 25.7811L99.0561 24.3669C99.0986 24.3244 99.1555 24.2851 99.2226 24.2587C99.2879 24.2331 99.3416 24.228 99.3712 24.228V26.228ZM100.47 25.7811C100.79 25.4613 100.917 25.0561 100.917 24.668H98.9172C98.9172 24.65 98.9201 24.6031 98.9437 24.5408C98.9684 24.4758 99.0077 24.4153 99.0561 24.3669L100.47 25.7811ZM100.917 24.668V23.786H98.9172V24.668H100.917ZM100.917 23.786C100.917 23.379 100.764 22.9806 100.436 22.6821L99.0906 24.1619C99.0406 24.1165 98.9915 24.0524 98.9578 23.9726C98.9248 23.8946 98.9172 23.8274 98.9172 23.786H100.917ZM100.436 22.6821C100.123 22.3973 99.7404 22.282 99.3712 22.282V24.282C99.3522 24.282 99.3088 24.2791 99.2519 24.2587C99.1929 24.2377 99.1369 24.2041 99.0906 24.1619L100.436 22.6821ZM99.3712 22.282H96.6692V24.282H99.3712V22.282ZM95.6692 23.282V25.228H97.6692V23.282H95.6692ZM96.6692 26.228H99.3712V24.228H96.6692V26.228Z" fill="black" mask="url(#path-6-outside-2_909_1549)"/>
</g>
</g>
<defs>
<filter id="filter0_di_909_1549" x="0.608116" y="0.536039" width="130.784" height="44.7838" filterUnits="userSpaceOnUse" color-interpolation-filters="sRGB">
<feFlood flood-opacity="0" result="BackgroundImageFix"/>
<feColorMatrix in="SourceAlpha" type="matrix" values="0 0 0 0 0 0 0 0 0 0 0 0 0 0 0 0 0 0 127 0" result="hardAlpha"/>
<feMorphology radius="0.927923" operator="dilate" in="SourceAlpha" result="effect1_dropShadow_909_1549"/>
<feOffset dy="0.927923"/>
<feGaussianBlur stdDeviation="0.231981"/>
<feComposite in2="hardAlpha" operator="out"/>
<feColorMatrix type="matrix" values="0 0 0 0 0 0 0 0 0 0 0 0 0 0 0 0 0 0 0.25 0"/>
<feBlend mode="normal" in2="BackgroundImageFix" result="effect1_dropShadow_909_1549"/>
<feBlend mode="normal" in="SourceGraphic" in2="effect1_dropShadow_909_1549" result="shape"/>
<feColorMatrix in="SourceAlpha" type="matrix" values="0 0 0 0 0 0 0 0 0 0 0 0 0 0 0 0 0 0 127 0" result="hardAlpha"/>
<feOffset dy="2.5"/>
<feGaussianBlur stdDeviation="0.25"/>
<feComposite in2="hardAlpha" operator="arithmetic" k2="-1" k3="1"/>
<feColorMatrix type="matrix" values="0 0 0 0 1 0 0 0 0 1 0 0 0 0 1 0 0 0 0.7 0"/>
<feBlend mode="normal" in2="shape" result="effect2_innerShadow_909_1549"/>
</filter>
<filter id="filter1_d_909_1549" x="29.9097" y="14.952" width="73.7598" height="18.604" filterUnits="userSpaceOnUse" color-interpolation-filters="sRGB">
<feFlood flood-opacity="0" result="BackgroundImageFix"/>
<feColorMatrix in="SourceAlpha" type="matrix" values="0 0 0 0 0 0 0 0 0 0 0 0 0 0 0 0 0 0 127 0" result="hardAlpha"/>
<feOffset dy="2"/>
<feComposite in2="hardAlpha" operator="out"/>
<feColorMatrix type="matrix" values="0 0 0 0 0 0 0 0 0 0 0 0 0 0 0 0 0 0 1 0"/>
<feBlend mode="normal" in2="BackgroundImageFix" result="effect1_dropShadow_909_1549"/>
<feBlend mode="normal" in="SourceGraphic" in2="effect1_dropShadow_909_1549" result="shape"/>
</filter>
<linearGradient id="paint0_linear_909_1549" x1="66" y1="1" x2="66" y2="43" gradientUnits="userSpaceOnUse">
<stop stop-color="#97D23C"/>
<stop offset="1" stop-color="#7CCE49"/>
</linearGradient>
<linearGradient id="paint1_linear_909_1549" x1="66" y1="7" x2="66" y2="36.5" gradientUnits="userSpaceOnUse">
<stop stop-color="white"/>
<stop offset="1" stop-color="white" stop-opacity="0"/>
</linearGradient>
<linearGradient id="paint2_linear_909_1549" x1="66" y1="13.6145" x2="66" y2="42" gradientUnits="userSpaceOnUse">
<stop stop-color="#2C5C1C" stop-opacity="0"/>
<stop offset="1" stop-color="#285C18" stop-opacity="0.64"/>
</linearGradient>
</defs>
</svg>
